PowerhouseFilarTrio-BoldItalic.ufo
<glyph name="exclam" format="2">
  <advance width="350"/>
  <unicode hex="0021"/>
  <outline>
    <contour>
      <point x="333" y="700" type="line"/>
      <point x="174" y="700" type="line"/>
      <point x="124" y="217" type="line"/>
      <point x="213" y="217" type="line"/>
    </contour>
    <component base="period" xScale="-1" yScale="-1" xOffset="290" yOffset="158" identifier="DF787EDA"/>
  </outline>
</glyph>
<glyph name="quotedbl" format="2">
  <advance width="600"/>
  <unicode hex="0022"/>
  <outline>
    <contour>
      <point x="202" y="700" type="line"/>
      <point x="169" y="364" type="line"/>
      <point x="275" y="364" type="line"/>
      <point x="360" y="700" type="line"/>
    </contour>
    <contour>
      <point x="399" y="700" type="line"/>
      <point x="366" y="364" type="line"/>
      <point x="472" y="364" type="line"/>
      <point x="557" y="700" type="line"/>
    </contour>
  </outline>
</glyph>
<glyph name="percent" format="2">
  <advance width="680"/>
  <unicode hex="0025"/>
  <outline>
    <contour>
      <point x="229" y="620" type="curve" smooth="yes"/>
      <point x="249" y="620"/>
      <point x="259" y="602"/>
      <point x="259" y="571" type="curve" smooth="yes"/>
      <point x="259" y="523"/>
      <point x="239" y="462"/>
      <point x="201" y="462" type="curve" smooth="yes"/>
      <point x="181" y="462"/>
      <point x="171" y="479"/>
      <point x="171" y="510" type="curve" smooth="yes"/>
      <point x="171" y="558"/>
      <point x="191" y="620"/>
    </contour>
    <contour>
      <point x="515" y="238" type="curve" smooth="yes"/>
      <point x="534" y="238"/>
      <point x="544" y="220"/>
      <point x="544" y="189" type="curve" smooth="yes"/>
      <point x="544" y="141"/>
      <point x="524" y="80"/>
      <point x="487" y="80" type="curve" smooth="yes"/>
      <point x="466" y="80"/>
      <point x="456" y="97"/>
      <point x="456" y="128" type="curve" smooth="yes"/>
      <point x="456" y="176"/>
      <point x="476" y="238"/>
    </contour>
    <contour>
      <point x="244" y="705" type="curve" smooth="yes"/>
      <point x="139" y="705"/>
      <point x="76" y="607"/>
      <point x="76" y="500" type="curve" smooth="yes"/>
      <point x="76" y="423"/>
      <point x="117" y="377"/>
      <point x="186" y="377" type="curve" smooth="yes"/>
      <point x="291" y="377"/>
      <point x="354" y="474"/>
      <point x="354" y="581" type="curve" smooth="yes"/>
      <point x="354" y="658"/>
      <point x="313" y="705"/>
    </contour>
    <contour>
      <point x="530" y="323" type="curve" smooth="yes"/>
      <point x="424" y="323"/>
      <point x="361" y="225"/>
      <point x="361" y="118" type="curve" smooth="yes"/>
      <point x="361" y="41"/>
      <point x="402" y="-5"/>
      <point x="472" y="-5" type="curve" smooth="yes"/>
      <point x="576" y="-5"/>
      <point x="639" y="92"/>
      <point x="639" y="199" type="curve" smooth="yes"/>
      <point x="639" y="276"/>
      <point x="598" y="323"/>
    </contour>
    <contour>
      <point x="558" y="700" type="line"/>
      <point x="50" y="0" type="line"/>
      <point x="158" y="0" type="line"/>
      <point x="666" y="700" type="line"/>
    </contour>
  </outline>
</glyph>
<glyph name="asterisk" format="2">
  <advance width="350"/>
  <unicode hex="002A"/>
  <outline>
    <contour>
      <point x="124" y="353" type="line"/>
      <point x="212" y="450" type="line"/>
      <point x="265" y="353" type="line"/>
      <point x="337" y="400" type="line"/>
      <point x="285" y="496" type="line"/>
      <point x="407" y="534" type="line"/>
      <point x="393" y="617" type="line"/>
      <point x="276" y="581" type="line"/>
      <point x="297" y="700" type="line"/>
      <point x="211" y="700" type="line"/>
      <point x="190" y="581" type="line"/>
      <point x="83" y="618" type="line"/>
      <point x="47" y="541" type="line"/>
      <point x="149" y="506" type="line"/>
      <point x="60" y="407" type="line"/>
    </contour>
  </outline>
</glyph>
<glyph name="period" format="2">
  <advance width="350"/>
  <unicode hex="002E"/>
  <outline>
    <contour>
      <point x="85" y="158" type="line"/>
      <point x="57" y="0" type="line"/>
      <point x="205" y="0" type="line"/>
      <point x="233" y="158" type="line"/>
    </contour>
  </outline>
</glyph>
<glyph name="question" format="2">
  <advance width="600"/>
  <unicode hex="003F"/>
  <outline>
    <contour>
      <point x="224" y="217" type="line"/>
      <point x="357" y="217" type="line"/>
      <point x="360" y="235" type="line" smooth="yes"/>
      <point x="369" y="282"/>
      <point x="387" y="308"/>
      <point x="441" y="338" type="curve" smooth="yes"/>
      <point x="532" y="388"/>
      <point x="589" y="450"/>
      <point x="589" y="545" type="curve" smooth="yes"/>
      <point x="589" y="643"/>
      <point x="506" y="712"/>
      <point x="379" y="712" type="curve" smooth="yes"/>
      <point x="238" y="712"/>
      <point x="147" y="643"/>
      <point x="110" y="521" type="curve"/>
      <point x="242" y="492" type="line"/>
      <point x="260" y="558"/>
      <point x="293" y="591"/>
      <point x="364" y="591" type="curve" smooth="yes"/>
      <point x="415" y="591"/>
      <point x="443" y="567"/>
      <point x="443" y="532" type="curve" smooth="yes"/>
      <point x="443" y="488"/>
      <point x="419" y="461"/>
      <point x="356" y="429" type="curve" smooth="yes"/>
      <point x="276" y="388"/>
      <point x="243" y="324"/>
      <point x="229" y="243" type="curve" smooth="yes"/>
    </contour>
    <contour>
      <point x="179" y="0" type="line"/>
      <point x="326" y="0" type="line"/>
      <point x="352" y="149" type="line"/>
      <point x="205" y="149" type="line"/>
    </contour>
  </outline>
</glyph>
<glyph name="at" format="2">
  <advance width="680"/>
  <unicode hex="0040"/>
  <outline>
    <contour>
      <point x="34" y="252" type="curve" smooth="yes"/>
      <point x="-9" y="6"/>
      <point x="93" y="-140"/>
      <point x="302" y="-140" type="curve" smooth="yes"/>
      <point x="372" y="-140"/>
      <point x="443" y="-123"/>
      <point x="499" y="-90" type="curve"/>
      <point x="478" y="-11" type="line"/>
      <point x="424" y="-35"/>
      <point x="366" y="-51"/>
      <point x="304" y="-51" type="curve" smooth="yes"/>
      <point x="150" y="-51"/>
      <point x="95" y="62"/>
      <point x="127" y="241" type="curve" smooth="yes"/>
      <point x="161" y="434"/>
      <point x="273" y="559"/>
      <point x="418" y="559" type="curve" smooth="yes"/>
      <point x="513" y="559"/>
      <point x="596" y="504"/>
      <point x="561" y="304" type="curve" smooth="yes"/>
      <point x="544" y="206"/>
      <point x="508" y="146"/>
      <point x="473" y="146" type="curve" smooth="yes"/>
      <point x="452" y="146"/>
      <point x="445" y="160"/>
      <point x="452" y="186" type="curve" smooth="yes"/>
      <point x="527" y="451" type="line"/>
      <point x="426" y="451" type="line"/>
      <point x="413" y="404" type="line"/>
      <point x="407" y="438"/>
      <point x="384" y="457"/>
      <point x="351" y="457" type="curve" smooth="yes"/>
      <point x="276" y="457"/>
      <point x="205" y="374"/>
      <point x="182" y="243" type="curve" smooth="yes"/>
      <point x="159" y="120"/>
      <point x="198" y="52"/>
      <point x="269" y="52" type="curve" smooth="yes"/>
      <point x="302" y="52"/>
      <point x="330" y="71"/>
      <point x="355" y="107" type="curve"/>
      <point x="366" y="71"/>
      <point x="403" y="52"/>
      <point x="447" y="52" type="curve" smooth="yes"/>
      <point x="543" y="52"/>
      <point x="627" y="139"/>
      <point x="654" y="293" type="curve" smooth="yes"/>
      <point x="695" y="517"/>
      <point x="595" y="646"/>
      <point x="420" y="646" type="curve" smooth="yes"/>
      <point x="224" y="646"/>
      <point x="76" y="486"/>
    </contour>
    <contour>
      <point x="374" y="253" type="curve" smooth="yes"/>
      <point x="359" y="189"/>
      <point x="334" y="142"/>
      <point x="305" y="142" type="curve" smooth="yes"/>
      <point x="275" y="142"/>
      <point x="264" y="167"/>
      <point x="285" y="254" type="curve" smooth="yes"/>
      <point x="302" y="325"/>
      <point x="327" y="367"/>
      <point x="357" y="367" type="curve" smooth="yes"/>
      <point x="390" y="367"/>
      <point x="392" y="332"/>
    </contour>
  </outline>
</glyph>
<glyph name="C" format="2">
  <advance width="680"/>
  <unicode hex="0043"/>
  <outline>
    <contour>
      <point x="65" y="274" type="curve" smooth="yes"/>
      <point x="65" y="94"/>
      <point x="171" y="-12"/>
      <point x="333" y="-12" type="curve" smooth="yes"/>
      <point x="477" y="-12"/>
      <point x="583" y="79"/>
      <point x="635" y="203" type="curve"/>
      <point x="509" y="249" type="line"/>
      <point x="472" y="162"/>
      <point x="415" y="116"/>
      <point x="345" y="116" type="curve" smooth="yes"/>
      <point x="267" y="116"/>
      <point x="218" y="168"/>
      <point x="218" y="277" type="curve" smooth="yes"/>
      <point x="218" y="432"/>
      <point x="291" y="584"/>
      <point x="416" y="584" type="curve" smooth="yes"/>
      <point x="489" y="584"/>
      <point x="538" y="540"/>
      <point x="545" y="444" type="curve"/>
      <point x="680" y="479" type="line"/>
      <point x="666" y="626"/>
      <point x="571" y="712"/>
      <point x="424" y="712" type="curve" smooth="yes"/>
      <point x="187" y="712"/>
      <point x="65" y="472"/>
    </contour>
  </outline>
</glyph>
<glyph name="D" format="2">
  <advance width="680"/>
  <unicode hex="0044"/>
  <guideline x="353.27" y="700.11" angle="90" name="center" identifier="F4UBNe7WQK"/>
  <outline>
    <contour>
      <point x="99" y="123" type="line"/>
      <point x="77" y="0" type="line"/>
      <point x="298" y="0" type="line" smooth="yes"/>
      <point x="549" y="0"/>
      <point x="649" y="225"/>
      <point x="649" y="416" type="curve" smooth="yes"/>
      <point x="649" y="591"/>
      <point x="554" y="700"/>
      <point x="389" y="700" type="curve" smooth="yes"/>
      <point x="200" y="700" type="line"/>
      <point x="179" y="577" type="line"/>
      <point x="351" y="577" type="line" smooth="yes"/>
      <point x="440" y="577"/>
      <point x="495" y="527"/>
      <point x="495" y="416" type="curve" smooth="yes"/>
      <point x="495" y="314"/>
      <point x="454" y="123"/>
      <point x="297" y="123" type="curve" smooth="yes"/>
    </contour>
    <contour>
      <point x="137" y="700" type="line"/>
      <point x="14" y="0" type="line"/>
      <point x="164" y="0" type="line"/>
      <point x="287" y="700" type="line"/>
    </contour>
  </outline>
</glyph>
<glyph name="G" format="2">
  <advance width="680"/>
  <unicode hex="0047"/>
  <guideline x="399" y="700" angle="90" name="center" identifier="4WsA0wEhuf"/>
  <outline>
    <contour>
      <point x="481" y="144" type="line"/>
      <point x="456" y="0" type="line"/>
      <point x="578" y="0" type="line"/>
      <point x="645" y="382" type="line"/>
      <point x="407" y="382" type="line"/>
      <point x="387" y="268" type="line"/>
      <point x="540" y="268" type="line"/>
      <point x="510" y="308" type="line"/>
      <point x="504" y="273" type="line" smooth="yes"/>
      <point x="485" y="170"/>
      <point x="428" y="115"/>
      <point x="343" y="115" type="curve" smooth="yes"/>
      <point x="248" y="115"/>
      <point x="189" y="186"/>
      <point x="220" y="360" type="curve" smooth="yes"/>
      <point x="248" y="513"/>
      <point x="320" y="585"/>
      <point x="407" y="585" type="curve" smooth="yes"/>
      <point x="471" y="585"/>
      <point x="519" y="544"/>
      <point x="526" y="472" type="curve"/>
      <point x="659" y="507" type="line"/>
      <point x="642" y="633"/>
      <point x="551" y="712"/>
      <point x="416" y="712" type="curve" smooth="yes"/>
      <point x="230" y="712"/>
      <point x="105" y="571"/>
      <point x="69" y="368" type="curve" smooth="yes"/>
      <point x="28" y="137"/>
      <point x="132" y="-12"/>
      <point x="299" y="-12" type="curve" smooth="yes"/>
      <point x="394" y="-12"/>
      <point x="478" y="49"/>
      <point x="509" y="142" type="curve"/>
    </contour>
  </outline>
</glyph>
<glyph name="H" format="2">
  <advance width="680"/>
  <unicode hex="0048"/>
  <outline>
    <contour>
      <point x="130" y="299" type="line"/>
      <point x="569" y="299" type="line"/>
      <point x="591" y="423" type="line"/>
      <point x="152" y="423" type="line"/>
    </contour>
    <contour>
      <point x="550" y="700" type="line"/>
      <point x="427" y="0" type="line"/>
      <point x="578" y="0" type="line"/>
      <point x="701" y="700" type="line"/>
    </contour>
    <contour>
      <point x="137" y="700" type="line"/>
      <point x="14" y="0" type="line"/>
      <point x="165" y="0" type="line"/>
      <point x="288" y="700" type="line"/>
    </contour>
  </outline>
</glyph>
<glyph name="I" format="2">
  <advance width="350"/>
  <unicode hex="0049"/>
  <outline>
    <contour>
      <point x="179" y="700" type="line"/>
      <point x="56" y="0" type="line"/>
      <point x="207" y="0" type="line"/>
      <point x="330" y="700" type="line"/>
    </contour>
    <contour>
      <point x="56" y="0" type="line"/>
      <point x="205" y="0" type="line"/>
      <point x="227" y="124" type="line"/>
      <point x="78" y="124" type="line"/>
    </contour>
    <contour>
      <point x="158" y="576" type="line"/>
      <point x="306" y="576" type="line"/>
      <point x="328" y="700" type="line"/>
      <point x="179" y="700" type="line"/>
    </contour>
  </outline>
</glyph>
<glyph name="M" format="2">
  <advance width="680"/>
  <unicode hex="004D"/>
  <outline>
    <contour>
      <point x="236" y="597" type="line"/>
      <point x="301" y="168" type="line"/>
      <point x="350" y="168" type="line"/>
      <point x="578" y="626" type="line"/>
      <point x="546" y="626" type="line"/>
      <point x="436" y="0" type="line"/>
      <point x="577" y="0" type="line"/>
      <point x="700" y="700" type="line"/>
      <point x="506" y="700" type="line"/>
      <point x="338" y="366" type="line"/>
      <point x="374" y="366" type="line"/>
      <point x="323" y="700" type="line"/>
      <point x="138" y="700" type="line"/>
      <point x="15" y="0" type="line"/>
      <point x="156" y="0" type="line"/>
      <point x="266" y="623" type="line"/>
    </contour>
  </outline>
</glyph>
<glyph name="N" format="2">
  <advance width="680"/>
  <unicode hex="004E"/>
  <outline>
    <contour>
      <point x="523" y="118" type="line"/>
      <point x="325" y="700" type="line"/>
      <point x="137" y="700" type="line"/>
      <point x="14" y="0" type="line"/>
      <point x="157" y="0" type="line"/>
      <point x="259" y="580" type="line"/>
      <point x="224" y="580" type="line"/>
      <point x="422" y="0" type="line"/>
      <point x="578" y="0" type="line"/>
      <point x="701" y="700" type="line"/>
      <point x="558" y="700" type="line"/>
      <point x="456" y="118" type="line"/>
    </contour>
  </outline>
</glyph>
<glyph name="Q" format="2">
  <advance width="680"/>
  <unicode hex="0051"/>
  <outline>
    <contour>
      <point x="221" y="-52" type="curve" smooth="yes"/>
      <point x="221" y="-129"/>
      <point x="277" y="-186"/>
      <point x="389" y="-186" type="curve" smooth="yes"/>
      <point x="425" y="-186"/>
      <point x="459" y="-185"/>
      <point x="488" y="-177" type="curve"/>
      <point x="507" y="-66" type="line"/>
      <point x="486" y="-69"/>
      <point x="464" y="-71"/>
      <point x="446" y="-71" type="curve" smooth="yes"/>
      <point x="393" y="-71"/>
      <point x="377" y="-52"/>
      <point x="377" y="-28" type="curve" smooth="yes"/>
      <point x="377" y="-25"/>
      <point x="377" y="-21"/>
      <point x="378" y="-17" type="curve" smooth="yes"/>
      <point x="385" y="22" type="line"/>
      <point x="232" y="22" type="line"/>
      <point x="224" y="-20" type="line" smooth="yes"/>
      <point x="222" y="-31"/>
      <point x="221" y="-42"/>
    </contour>
    <contour>
      <point x="521" y="421" type="curve" smooth="yes"/>
      <point x="521" y="263"/>
      <point x="444" y="116"/>
      <point x="323" y="116" type="curve" smooth="yes"/>
      <point x="243" y="116"/>
      <point x="195" y="170"/>
      <point x="195" y="279" type="curve" smooth="yes"/>
      <point x="195" y="437"/>
      <point x="272" y="584"/>
      <point x="393" y="584" type="curve" smooth="yes"/>
      <point x="473" y="584"/>
      <point x="521" y="530"/>
    </contour>
    <contour>
      <point x="42" y="276" type="curve" smooth="yes"/>
      <point x="42" y="95"/>
      <point x="149" y="-12"/>
      <point x="314" y="-12" type="curve" smooth="yes"/>
      <point x="552" y="-12"/>
      <point x="674" y="221"/>
      <point x="674" y="424" type="curve" smooth="yes"/>
      <point x="674" y="605"/>
      <point x="567" y="712"/>
      <point x="402" y="712" type="curve" smooth="yes"/>
      <point x="164" y="712"/>
      <point x="42" y="479"/>
    </contour>
  </outline>
</glyph>
<glyph name="R" format="2">
  <advance width="680"/>
  <unicode hex="0052"/>
  <guideline x="345" y="819" angle="90" name="center" identifier="k7bKXo4CqW"/>
  <outline>
    <contour>
      <point x="147" y="700" type="line"/>
      <point x="23" y="0" type="line"/>
      <point x="173" y="0" type="line"/>
      <point x="297" y="700" type="line"/>
    </contour>
    <contour>
      <point x="288" y="308" type="line"/>
      <point x="328" y="214"/>
      <point x="410" y="79"/>
      <point x="467" y="0" type="curve"/>
      <point x="627" y="0" type="line"/>
      <point x="627" y="7" type="line"/>
      <point x="572" y="82"/>
      <point x="489" y="215"/>
      <point x="448" y="308" type="curve"/>
    </contour>
    <contour>
      <point x="409" y="399" type="curve" smooth="yes"/>
      <point x="166" y="399" type="line"/>
      <point x="144" y="277" type="line"/>
      <point x="404" y="277" type="line" smooth="yes"/>
      <point x="596" y="277"/>
      <point x="683" y="388"/>
      <point x="683" y="519" type="curve" smooth="yes"/>
      <point x="683" y="638"/>
      <point x="610" y="700"/>
      <point x="475" y="700" type="curve" smooth="yes"/>
      <point x="224" y="700" type="line"/>
      <point x="202" y="577" type="line"/>
      <point x="440" y="577" type="line" smooth="yes"/>
      <point x="496" y="577"/>
      <point x="526" y="552"/>
      <point x="526" y="503" type="curve" smooth="yes"/>
      <point x="526" y="444"/>
      <point x="483" y="399"/>
    </contour>
  </outline>
</glyph>
<glyph name="T" format="2">
  <advance width="680"/>
  <unicode hex="0054"/>
  <outline>
    <contour>
      <point x="336" y="651" type="line"/>
      <point x="221" y="0" type="line"/>
      <point x="372" y="0" type="line"/>
      <point x="487" y="651" type="line"/>
    </contour>
    <contour>
      <point x="78" y="576" type="line"/>
      <point x="717" y="576" type="line"/>
      <point x="739" y="700" type="line"/>
      <point x="100" y="700" type="line"/>
    </contour>
  </outline>
</glyph>
<glyph name="W" format="2">
  <advance width="680"/>
  <unicode hex="0057"/>
  <outline>
    <contour>
      <point x="519" y="0" type="line"/>
      <point x="744" y="700" type="line"/>
      <point x="604" y="700" type="line"/>
      <point x="425" y="114" type="line"/>
      <point x="479" y="114" type="line"/>
      <point x="449" y="560" type="line"/>
      <point x="335" y="560" type="line"/>
      <point x="149" y="114" type="line"/>
      <point x="204" y="114" type="line"/>
      <point x="232" y="700" type="line"/>
      <point x="94" y="700" type="line"/>
      <point x="73" y="0" type="line"/>
      <point x="202" y="0" type="line"/>
      <point x="404" y="491" type="line"/>
      <point x="358" y="491" type="line"/>
      <point x="390" y="0" type="line"/>
    </contour>
  </outline>
</glyph>
<glyph name="underscore" format="2">
  <advance width="350"/>
  <unicode hex="005F"/>
  <outline>
    <contour>
      <point x="-66" y="-161" type="line"/>
      <point x="272" y="-161" type="line"/>
      <point x="291" y="-49" type="line"/>
      <point x="-47" y="-49" type="line"/>
    </contour>
  </outline>
</glyph>
<glyph name="l" format="2">
  <advance width="350"/>
  <unicode hex="006C"/>
  <outline>
    <contour>
      <point x="184" y="700" type="line"/>
      <point x="61" y="0" type="line"/>
      <point x="201" y="0" type="line"/>
      <point x="324" y="700" type="line"/>
    </contour>
    <contour>
      <point x="165" y="593" type="line"/>
      <point x="305" y="593" type="line"/>
      <point x="324" y="700" type="line"/>
      <point x="184" y="700" type="line"/>
    </contour>
    <contour>
      <point x="61" y="0" type="line"/>
      <point x="201" y="0" type="line"/>
      <point x="219" y="107" type="line"/>
      <point x="80" y="107" type="line"/>
    </contour>
  </outline>
</glyph>
<glyph name="m" format="2">
  <advance width="680"/>
  <unicode hex="006D"/>
  <outline>
    <contour>
      <point x="13" y="0" type="line"/>
      <point x="140" y="0" type="line"/>
      <point x="201" y="345" type="line" smooth="yes"/>
      <point x="207" y="378"/>
      <point x="225" y="399"/>
      <point x="255" y="399" type="curve" smooth="yes"/>
      <point x="285" y="399"/>
      <point x="298" y="377"/>
      <point x="293" y="348" type="curve" smooth="yes"/>
      <point x="232" y="0" type="line"/>
      <point x="359" y="0" type="line"/>
      <point x="420" y="345" type="line" smooth="yes"/>
      <point x="426" y="378"/>
      <point x="445" y="399"/>
      <point x="475" y="399" type="curve" smooth="yes"/>
      <point x="504" y="399"/>
      <point x="518" y="378"/>
      <point x="512" y="348" type="curve" smooth="yes"/>
      <point x="451" y="0" type="line"/>
      <point x="578" y="0" type="line"/>
      <point x="645" y="383" type="line" smooth="yes"/>
      <point x="659" y="460"/>
      <point x="618" y="512"/>
      <point x="552" y="512" type="curve" smooth="yes"/>
      <point x="498" y="512"/>
      <point x="451" y="482"/>
      <point x="424" y="447" type="curve"/>
      <point x="411" y="487"/>
      <point x="375" y="512"/>
      <point x="333" y="512" type="curve" smooth="yes"/>
      <point x="284" y="512"/>
      <point x="244" y="483"/>
      <point x="220" y="453" type="curve"/>
      <point x="228" y="500" type="line"/>
      <point x="101" y="500" type="line"/>
    </contour>
  </outline>
</glyph>
<glyph name="p" format="2">
  <advance width="600"/>
  <unicode hex="0070"/>
  <guideline x="566" y="239" angle="80" identifier="cRMl3ukQKC"/>
  <outline>
    <contour>
      <point x="103" y="500" type="line"/>
      <point x="-17" y="-180" type="line"/>
      <point x="123" y="-180" type="line"/>
      <point x="177" y="123" type="line"/>
      <point x="144" y="124" type="line"/>
      <point x="161" y="40"/>
      <point x="224" y="-13"/>
      <point x="317" y="-13" type="curve" smooth="yes"/>
      <point x="472" y="-13"/>
      <point x="571" y="142"/>
      <point x="571" y="305" type="curve" smooth="yes"/>
      <point x="571" y="436"/>
      <point x="494" y="512"/>
      <point x="394" y="512" type="curve" smooth="yes"/>
      <point x="309" y="512"/>
      <point x="234" y="462"/>
      <point x="190" y="384" type="curve"/>
      <point x="223" y="383" type="line"/>
      <point x="243" y="500" type="line"/>
    </contour>
    <contour>
      <point x="427" y="283" type="curve" smooth="yes"/>
      <point x="427" y="195"/>
      <point x="383" y="104"/>
      <point x="289" y="104" type="curve" smooth="yes"/>
      <point x="228" y="104"/>
      <point x="190" y="143"/>
      <point x="190" y="214" type="curve" smooth="yes"/>
      <point x="190" y="302"/>
      <point x="234" y="396"/>
      <point x="328" y="396" type="curve" smooth="yes"/>
      <point x="389" y="396"/>
      <point x="427" y="355"/>
    </contour>
  </outline>
</glyph>
<glyph name="x" format="2">
  <advance width="600"/>
  <unicode hex="0078"/>
  <outline>
    <contour>
      <point x="79" y="500" type="line"/>
      <point x="241" y="231" type="line"/>
      <point x="259" y="227" type="line"/>
      <point x="392" y="0" type="line"/>
      <point x="536" y="0" type="line"/>
      <point x="370" y="273" type="line"/>
      <point x="352" y="281" type="line"/>
      <point x="223" y="500" type="line"/>
    </contour>
    <contour>
      <point x="608" y="500" type="line"/>
      <point x="447" y="500" type="line"/>
      <point x="254" y="282" type="line"/>
      <point x="234" y="276" type="line"/>
      <point x="-23" y="0" type="line"/>
      <point x="139" y="0" type="line"/>
      <point x="354" y="234" type="line"/>
      <point x="364" y="233" type="line"/>
    </contour>
  </outline>
</glyph>
<glyph name="y" format="2">
  <advance width="600"/>
  <unicode hex="0079"/>
  <outline>
    <contour>
      <point x="231" y="-180" type="line"/>
      <point x="623" y="500" type="line"/>
      <point x="468" y="500" type="line"/>
      <point x="224" y="58" type="line"/>
      <point x="204" y="32" type="line"/>
      <point x="74" y="-180" type="line"/>
    </contour>
    <contour>
      <point x="65" y="500" type="line"/>
      <point x="193" y="-61" type="line"/>
      <point x="283" y="116" type="line"/>
      <point x="204" y="500" type="line"/>
    </contour>
  </outline>
</glyph>
<glyph name="z" format="2">
  <advance width="600"/>
  <unicode hex="007A"/>
  <outline>
    <contour>
      <point x="41" y="96" type="line"/>
      <point x="24" y="0" type="line"/>
      <point x="491" y="0" type="line"/>
      <point x="510" y="108" type="line"/>
      <point x="96" y="108" type="line"/>
      <point x="188" y="66" type="line"/>
      <point x="560" y="410" type="line"/>
      <point x="576" y="500" type="line"/>
      <point x="111" y="500" type="line"/>
      <point x="92" y="390" type="line"/>
      <point x="509" y="390" type="line"/>
      <point x="413" y="441" type="line"/>
    </contour>
  </outline>
</glyph>
<glyph name="currency" format="2">
  <advance width="680"/>
  <unicode hex="00A4"/>
  <outline>
    <contour>
      <point x="249" y="327" type="curve" smooth="yes"/>
      <point x="249" y="389"/>
      <point x="298" y="456"/>
      <point x="373" y="456" type="curve" smooth="yes"/>
      <point x="430" y="456"/>
      <point x="465" y="417"/>
      <point x="465" y="363" type="curve" smooth="yes"/>
      <point x="465" y="301"/>
      <point x="416" y="234"/>
      <point x="341" y="234" type="curve" smooth="yes"/>
      <point x="284" y="234"/>
      <point x="249" y="273"/>
    </contour>
    <contour>
      <point x="209" y="439" type="line"/>
      <point x="298" y="511" type="line"/>
      <point x="214" y="617" type="line"/>
      <point x="125" y="544" type="line"/>
    </contour>
    <contour>
      <point x="327" y="122" type="curve" smooth="yes"/>
      <point x="471" y="122"/>
      <point x="581" y="240"/>
      <point x="581" y="378" type="curve" smooth="yes"/>
      <point x="581" y="487"/>
      <point x="500" y="568"/>
      <point x="387" y="568" type="curve" smooth="yes"/>
      <point x="243" y="568"/>
      <point x="133" y="450"/>
      <point x="133" y="312" type="curve" smooth="yes"/>
      <point x="133" y="203"/>
      <point x="214" y="122"/>
    </contour>
    <contour>
      <point x="500" y="73" type="line"/>
      <point x="589" y="146" type="line"/>
      <point x="505" y="251" type="line"/>
      <point x="416" y="179" type="line"/>
    </contour>
    <contour>
      <point x="470" y="509" type="line"/>
      <point x="539" y="423" type="line"/>
      <point x="659" y="522" type="line"/>
      <point x="590" y="607" type="line"/>
    </contour>
    <contour>
      <point x="55" y="168" type="line"/>
      <point x="124" y="83" type="line"/>
      <point x="244" y="181" type="line"/>
      <point x="175" y="267" type="line"/>
    </contour>
  </outline>
</glyph>
<glyph name="brokenbar" format="2">
  <advance width="350"/>
  <unicode hex="00A6"/>
  <outline>
    <contour>
      <point x="191" y="745" type="line"/>
      <point x="125" y="367" type="line"/>
      <point x="268" y="367" type="line"/>
      <point x="334" y="745" type="line"/>
    </contour>
    <contour>
      <point x="107" y="265" type="line"/>
      <point x="40" y="-113" type="line"/>
      <point x="183" y="-113" type="line"/>
      <point x="250" y="265" type="line"/>
    </contour>
  </outline>
</glyph>
<glyph name="copyright" format="2">
  <advance width="680"/>
  <unicode hex="00A9"/>
  <outline>
    <contour>
      <point x="331" y="124" type="curve" smooth="yes"/>
      <point x="526" y="124"/>
      <point x="665" y="273"/>
      <point x="665" y="457" type="curve" smooth="yes"/>
      <point x="665" y="600"/>
      <point x="561" y="709"/>
      <point x="408" y="709" type="curve" smooth="yes"/>
      <point x="213" y="709"/>
      <point x="74" y="561"/>
      <point x="74" y="378" type="curve" smooth="yes"/>
      <point x="74" y="234"/>
      <point x="179" y="124"/>
    </contour>
    <contour>
      <point x="354" y="260" type="curve" smooth="yes"/>
      <point x="420" y="260"/>
      <point x="478" y="294"/>
      <point x="505" y="354" type="curve"/>
      <point x="430" y="379" type="line"/>
      <point x="416" y="350"/>
      <point x="395" y="334"/>
      <point x="363" y="334" type="curve" smooth="yes"/>
      <point x="328" y="334"/>
      <point x="304" y="359"/>
      <point x="304" y="400" type="curve" smooth="yes"/>
      <point x="304" y="454"/>
      <point x="337" y="501"/>
      <point x="386" y="501" type="curve" smooth="yes"/>
      <point x="419" y="501"/>
      <point x="437" y="481"/>
      <point x="440" y="450" type="curve"/>
      <point x="521" y="470" type="line"/>
      <point x="514" y="535"/>
      <point x="464" y="575"/>
      <point x="395" y="575" type="curve" smooth="yes"/>
      <point x="286" y="575"/>
      <point x="218" y="491"/>
      <point x="218" y="395" type="curve" smooth="yes"/>
      <point x="218" y="318"/>
      <point x="271" y="260"/>
    </contour>
    <contour>
      <point x="340" y="196" type="curve" smooth="yes"/>
      <point x="225" y="196"/>
      <point x="152" y="273"/>
      <point x="152" y="382" type="curve" smooth="yes"/>
      <point x="152" y="520"/>
      <point x="252" y="638"/>
      <point x="399" y="638" type="curve" smooth="yes"/>
      <point x="514" y="638"/>
      <point x="588" y="562"/>
      <point x="588" y="452" type="curve" smooth="yes"/>
      <point x="588" y="315"/>
      <point x="488" y="196"/>
    </contour>
  </outline>
</glyph>
<glyph name="ordfeminine" format="2">
  <advance width="350"/>
  <unicode hex="00AA"/>
  <outline>
    <contour>
      <point x="237" y="712" type="curve" smooth="yes"/>
      <point x="123" y="712"/>
      <point x="85" y="644"/>
      <point x="72" y="583" type="curve"/>
      <point x="186" y="564" type="line"/>
      <point x="193" y="600"/>
      <point x="205" y="624"/>
      <point x="241" y="624" type="curve" smooth="yes"/>
      <point x="272" y="624"/>
      <point x="279" y="606"/>
      <point x="273" y="572" type="curve" smooth="yes"/>
      <point x="250" y="444" type="line" smooth="yes"/>
      <point x="243" y="404"/>
      <point x="215" y="382"/>
      <point x="183" y="382" type="curve" smooth="yes"/>
      <point x="161" y="382"/>
      <point x="140" y="400"/>
      <point x="145" y="427" type="curve" smooth="yes"/>
      <point x="151" y="457"/>
      <point x="171" y="466"/>
      <point x="209" y="471" type="curve" smooth="yes"/>
      <point x="316" y="486" type="line"/>
      <point x="329" y="562" type="line"/>
      <point x="184" y="543" type="line" smooth="yes"/>
      <point x="100" y="534"/>
      <point x="42" y="505"/>
      <point x="31" y="443" type="curve" smooth="yes"/>
      <point x="14" y="346"/>
      <point x="78" y="298"/>
      <point x="154" y="298" type="curve" smooth="yes"/>
      <point x="209" y="298"/>
      <point x="253" y="331"/>
      <point x="277" y="377" type="curve"/>
      <point x="253" y="387" type="line"/>
      <point x="245" y="319"/>
      <point x="293" y="302"/>
      <point x="331" y="302" type="curve" smooth="yes"/>
      <point x="343" y="302"/>
      <point x="350" y="303"/>
      <point x="361" y="304" type="curve"/>
      <point x="375" y="388" type="line"/>
      <point x="373" y="388"/>
      <point x="372" y="388"/>
      <point x="369" y="388" type="curve" smooth="yes"/>
      <point x="360" y="388"/>
      <point x="357" y="395"/>
      <point x="358" y="404" type="curve" smooth="yes"/>
      <point x="387" y="570" type="line" smooth="yes"/>
      <point x="404" y="664"/>
      <point x="338" y="712"/>
    </contour>
  </outline>
</glyph>
<glyph name="registered" format="2">
  <advance width="600"/>
  <unicode hex="00AE"/>
  <outline>
    <contour>
      <point x="567" y="513" type="curve" smooth="yes"/>
      <point x="567" y="622"/>
      <point x="488" y="705"/>
      <point x="370" y="705" type="curve" smooth="yes"/>
      <point x="222" y="705"/>
      <point x="115" y="593"/>
      <point x="115" y="451" type="curve" smooth="yes"/>
      <point x="115" y="342"/>
      <point x="194" y="259"/>
      <point x="312" y="259" type="curve" smooth="yes"/>
      <point x="460" y="259"/>
      <point x="567" y="371"/>
    </contour>
    <contour>
      <point x="362" y="647" type="curve" smooth="yes"/>
      <point x="451" y="647"/>
      <point x="504" y="590"/>
      <point x="504" y="509" type="curve" smooth="yes"/>
      <point x="504" y="415"/>
      <point x="438" y="317"/>
      <point x="320" y="317" type="curve" smooth="yes"/>
      <point x="231" y="317"/>
      <point x="178" y="374"/>
      <point x="178" y="455" type="curve" smooth="yes"/>
      <point x="178" y="549"/>
      <point x="244" y="647"/>
    </contour>
    <contour>
      <point x="266" y="589" type="line"/>
      <point x="228" y="375" type="line"/>
      <point x="291" y="375" type="line"/>
      <point x="329" y="589" type="line"/>
    </contour>
    <contour>
      <point x="314" y="452" type="line"/>
      <point x="329" y="424"/>
      <point x="348" y="399"/>
      <point x="365" y="375" type="curve"/>
      <point x="433" y="375" type="line"/>
      <point x="433" y="377" type="line"/>
      <point x="417" y="400"/>
      <point x="397" y="425"/>
      <point x="381" y="452" type="curve"/>
    </contour>
    <contour>
      <point x="356" y="494" type="curve" smooth="yes"/>
      <point x="268" y="494" type="line"/>
      <point x="259" y="443" type="line"/>
      <point x="349" y="443" type="line" smooth="yes"/>
      <point x="425" y="443"/>
      <point x="449" y="485"/>
      <point x="449" y="526" type="curve"/>
      <point x="449" y="566"/>
      <point x="423" y="589"/>
      <point x="373" y="589" type="curve" smooth="yes"/>
      <point x="286" y="589" type="line"/>
      <point x="277" y="536" type="line"/>
      <point x="364" y="536" type="line" smooth="yes"/>
      <point x="378" y="536"/>
      <point x="384" y="529"/>
      <point x="384" y="518" type="curve" smooth="yes"/>
      <point x="384" y="504"/>
      <point x="375" y="494"/>
    </contour>
  </outline>
</glyph>
<glyph name="degree" format="2">
  <advance width="350"/>
  <unicode hex="00B0"/>
  <outline>
    <contour>
      <point x="374" y="579" type="curve" smooth="yes"/>
      <point x="374" y="653"/>
      <point x="318" y="708"/>
      <point x="242" y="708" type="curve" smooth="yes"/>
      <point x="147" y="708"/>
      <point x="88" y="632"/>
      <point x="88" y="552" type="curve" smooth="yes"/>
      <point x="88" y="479"/>
      <point x="144" y="424"/>
      <point x="220" y="424" type="curve" smooth="yes"/>
      <point x="315" y="424"/>
      <point x="374" y="500"/>
    </contour>
    <contour>
      <point x="235" y="617" type="curve" smooth="yes"/>
      <point x="261" y="617"/>
      <point x="279" y="599"/>
      <point x="279" y="571" type="curve" smooth="yes"/>
      <point x="279" y="541"/>
      <point x="258" y="515"/>
      <point x="227" y="515" type="curve" smooth="yes"/>
      <point x="201" y="515"/>
      <point x="183" y="533"/>
      <point x="183" y="561" type="curve" smooth="yes"/>
      <point x="183" y="592"/>
      <point x="204" y="617"/>
    </contour>
  </outline>
</glyph>
<glyph name="AE" format="2">
  <advance width="680"/>
  <unicode hex="00C6"/>
  <guideline x="697" y="700" angle="90" name="center" identifier="5fDgNuTzb2"/>
  <guideline x="697" y="700" angle="90" name="center" identifier="LvIz00Z5F9"/>
  <outline>
    <contour>
      <point x="-19" y="0" type="line"/>
      <point x="125" y="0" type="line"/>
      <point x="349" y="576" type="line"/>
      <point x="422" y="576" type="line"/>
      <point x="444" y="700" type="line"/>
      <point x="258" y="700" type="line"/>
    </contour>
    <contour>
      <point x="121" y="154" type="line"/>
      <point x="375" y="154" type="line"/>
      <point x="397" y="276" type="line"/>
      <point x="143" y="276" type="line"/>
    </contour>
    <contour>
      <point x="342" y="0" type="line"/>
      <point x="612" y="0" type="line"/>
      <point x="634" y="124" type="line"/>
      <point x="364" y="124" type="line"/>
    </contour>
    <contour>
      <point x="281" y="0" type="line"/>
      <point x="418" y="0" type="line"/>
      <point x="541" y="700" type="line"/>
      <point x="404" y="700" type="line"/>
    </contour>
    <contour>
      <point x="400" y="294" type="line"/>
      <point x="589" y="294" type="line"/>
      <point x="610" y="417" type="line"/>
      <point x="421" y="417" type="line"/>
    </contour>
    <contour>
      <point x="439" y="576" type="line"/>
      <point x="695" y="576" type="line"/>
      <point x="717" y="700" type="line"/>
      <point x="461" y="700" type="line"/>
    </contour>
  </outline>
</glyph>
<glyph name="Idieresis" format="2">
  <advance width="350"/>
  <unicode hex="00CF"/>
  <outline>
    <contour>
      <point x="109" y="899" type="line"/>
      <point x="85" y="760" type="line"/>
      <point x="234" y="760" type="line"/>
      <point x="258" y="899" type="line"/>
    </contour>
    <contour>
      <point x="320" y="899" type="line"/>
      <point x="296" y="760" type="line"/>
      <point x="445" y="760" type="line"/>
      <point x="469" y="899" type="line"/>
    </contour>
    <component base="I"/>
  </outline>
</glyph>
<glyph name="Eth" format="2">
  <advance width="680"/>
  <unicode hex="00D0"/>
  <outline>
    <contour>
      <point x="34" y="0" type="line"/>
      <point x="184" y="0" type="line"/>
      <point x="307" y="700" type="line"/>
      <point x="157" y="700" type="line"/>
    </contour>
    <contour>
      <point x="119" y="123" type="line"/>
      <point x="97" y="0" type="line"/>
      <point x="318" y="0" type="line" smooth="yes"/>
      <point x="569" y="0"/>
      <point x="669" y="225"/>
      <point x="669" y="416" type="curve" smooth="yes"/>
      <point x="669" y="591"/>
      <point x="574" y="700"/>
      <point x="409" y="700" type="curve" smooth="yes"/>
      <point x="220" y="700" type="line"/>
      <point x="199" y="577" type="line"/>
      <point x="371" y="577" type="line" smooth="yes"/>
      <point x="460" y="577"/>
      <point x="515" y="527"/>
      <point x="515" y="416" type="curve" smooth="yes"/>
      <point x="515" y="314"/>
      <point x="474" y="123"/>
      <point x="317" y="123" type="curve" smooth="yes"/>
    </contour>
    <contour>
      <point x="24" y="297" type="line"/>
      <point x="365" y="297" type="line"/>
      <point x="387" y="418" type="line"/>
      <point x="46" y="418" type="line"/>
    </contour>
  </outline>
</glyph>
<glyph name="Oslash" format="2">
  <advance width="680"/>
  <unicode hex="00D8"/>
  <outline>
    <contour>
      <point x="-7" y="48" type="line"/>
      <point x="80" y="-32" type="line"/>
      <point x="723" y="653" type="line"/>
      <point x="636" y="733" type="line"/>
    </contour>
    <contour>
      <point x="521" y="421" type="curve" smooth="yes"/>
      <point x="521" y="263"/>
      <point x="444" y="116"/>
      <point x="323" y="116" type="curve" smooth="yes"/>
      <point x="243" y="116"/>
      <point x="195" y="170"/>
      <point x="195" y="279" type="curve" smooth="yes"/>
      <point x="195" y="437"/>
      <point x="272" y="584"/>
      <point x="393" y="584" type="curve" smooth="yes"/>
      <point x="473" y="584"/>
      <point x="521" y="530"/>
    </contour>
    <contour>
      <point x="42" y="276" type="curve" smooth="yes"/>
      <point x="42" y="95"/>
      <point x="149" y="-12"/>
      <point x="314" y="-12" type="curve" smooth="yes"/>
      <point x="552" y="-12"/>
      <point x="674" y="221"/>
      <point x="674" y="424" type="curve" smooth="yes"/>
      <point x="674" y="605"/>
      <point x="567" y="712"/>
      <point x="402" y="712" type="curve" smooth="yes"/>
      <point x="164" y="712"/>
      <point x="42" y="479"/>
    </contour>
  </outline>
</glyph>
<glyph name="germandbls" format="2">
  <advance width="600"/>
  <unicode hex="00DF"/>
  <outline>
    <contour>
      <point x="117" y="513" type="curve" smooth="yes"/>
      <point x="26" y="0" type="line"/>
      <point x="166" y="0" type="line"/>
      <point x="257" y="510" type="line" smooth="yes"/>
      <point x="267" y="564"/>
      <point x="304" y="604"/>
      <point x="366" y="604" type="curve" smooth="yes"/>
      <point x="414" y="604"/>
      <point x="449" y="578"/>
      <point x="449" y="528" type="curve" smooth="yes"/>
      <point x="449" y="477"/>
      <point x="414" y="423"/>
      <point x="329" y="423" type="curve" smooth="yes"/>
      <point x="299" y="423" type="line"/>
      <point x="280" y="316" type="line"/>
      <point x="308" y="316" type="line" smooth="yes"/>
      <point x="382" y="316"/>
      <point x="428" y="288"/>
      <point x="428" y="220" type="curve" smooth="yes"/>
      <point x="428" y="161"/>
      <point x="393" y="101"/>
      <point x="306" y="101" type="curve" smooth="yes"/>
      <point x="277" y="101"/>
      <point x="255" y="108"/>
      <point x="239" y="116" type="curve"/>
      <point x="219" y="3" type="line"/>
      <point x="234" y="-2"/>
      <point x="274" y="-12"/>
      <point x="321" y="-12" type="curve" smooth="yes"/>
      <point x="495" y="-12"/>
      <point x="570" y="121"/>
      <point x="570" y="223" type="curve" smooth="yes"/>
      <point x="570" y="313"/>
      <point x="513" y="355"/>
      <point x="467" y="372" type="curve"/>
      <point x="466" y="366" type="line"/>
      <point x="523" y="387"/>
      <point x="591" y="450"/>
      <point x="591" y="545" type="curve" smooth="yes"/>
      <point x="591" y="646"/>
      <point x="514" y="712"/>
      <point x="380" y="712" type="curve" smooth="yes"/>
      <point x="233" y="712"/>
      <point x="137" y="628"/>
    </contour>
  </outline>
</glyph>
<glyph name="ae" format="2">
  <advance width="680"/>
  <unicode hex="00E6"/>
  <outline>
    <contour>
      <point x="10" y="166" type="curve" smooth="yes"/>
      <point x="-10" y="49"/>
      <point x="64" y="-12"/>
      <point x="162" y="-12" type="curve" smooth="yes"/>
      <point x="316" y="-12"/>
      <point x="342" y="123"/>
      <point x="357" y="210" type="curve"/>
      <point x="395" y="362" type="line" smooth="yes"/>
      <point x="397" y="371"/>
      <point x="397" y="380"/>
      <point x="397" y="389" type="curve" smooth="yes"/>
      <point x="397" y="458"/>
      <point x="342" y="512"/>
      <point x="249" y="512" type="curve" smooth="yes"/>
      <point x="140" y="512"/>
      <point x="82" y="455"/>
      <point x="55" y="354" type="curve"/>
      <point x="173" y="332" type="line"/>
      <point x="188" y="387"/>
      <point x="205" y="407"/>
      <point x="245" y="407" type="curve" smooth="yes"/>
      <point x="271" y="407"/>
      <point x="289" y="395"/>
      <point x="289" y="366" type="curve" smooth="yes"/>
      <point x="289" y="361"/>
      <point x="288" y="355"/>
      <point x="287" y="349" type="curve" smooth="yes"/>
      <point x="254" y="159" type="line" smooth="yes"/>
      <point x="246" y="112"/>
      <point x="218" y="89"/>
      <point x="182" y="89" type="curve" smooth="yes"/>
      <point x="147" y="89"/>
      <point x="122" y="112"/>
      <point x="129" y="150" type="curve" smooth="yes"/>
      <point x="135" y="187"/>
      <point x="163" y="202"/>
      <point x="212" y="205" type="curve" smooth="yes"/>
      <point x="326" y="212" type="line"/>
      <point x="344" y="312" type="line"/>
      <point x="207" y="305" type="line" smooth="yes"/>
      <point x="103" y="299"/>
      <point x="26" y="259"/>
    </contour>
    <contour>
      <point x="296" y="270" type="curve" smooth="yes"/>
      <point x="266" y="100"/>
      <point x="314" y="-12"/>
      <point x="441" y="-12" type="curve" smooth="yes"/>
      <point x="516" y="-12"/>
      <point x="594" y="22"/>
      <point x="631" y="136" type="curve"/>
      <point x="519" y="166" type="line"/>
      <point x="501" y="104"/>
      <point x="477" y="96"/>
      <point x="448" y="96" type="curve" smooth="yes"/>
      <point x="405" y="96"/>
      <point x="373" y="122"/>
      <point x="398" y="260" type="curve" smooth="yes"/>
      <point x="418" y="372"/>
      <point x="444" y="402"/>
      <point x="486" y="402" type="curve" smooth="yes"/>
      <point x="514" y="402"/>
      <point x="541" y="386"/>
      <point x="541" y="322" type="curve" smooth="yes"/>
      <point x="541" y="303"/>
      <point x="539" y="280"/>
      <point x="534" y="252" type="curve"/>
      <point x="606" y="308" type="line"/>
      <point x="341" y="308" type="line"/>
      <point x="323" y="205" type="line"/>
      <point x="647" y="205" type="line"/>
      <point x="654" y="245" type="line" smooth="yes"/>
      <point x="659" y="274"/>
      <point x="662" y="301"/>
      <point x="662" y="326" type="curve" smooth="yes"/>
      <point x="662" y="448"/>
      <point x="600" y="512"/>
      <point x="513" y="512" type="curve" smooth="yes"/>
      <point x="390" y="512"/>
      <point x="319" y="399"/>
    </contour>
  </outline>
</glyph>
<glyph name="icircumflex" format="2">
  <advance width="350"/>
  <unicode hex="00EE"/>
  <outline>
    <contour>
      <point x="186" y="700" type="line"/>
      <point x="52" y="564" type="line"/>
      <point x="169" y="564" type="line"/>
      <point x="302" y="662" type="line"/>
      <point x="196" y="662" type="line"/>
      <point x="295" y="564" type="line"/>
      <point x="406" y="564" type="line"/>
      <point x="320" y="700" type="line"/>
    </contour>
    <component base="dotlessi"/>
  </outline>
</glyph>
<glyph name="Aogonek" format="2">
  <advance width="680"/>
  <unicode hex="0104"/>
  <outline>
    <contour>
      <point x="169" y="272" type="line"/>
      <point x="148" y="150" type="line"/>
      <point x="497" y="150" type="line"/>
      <point x="518" y="272" type="line"/>
    </contour>
    <contour>
      <point x="485" y="-41" type="line"/>
      <point x="618" y="0" type="line"/>
      <point x="499" y="700" type="line"/>
      <point x="343" y="700" type="line"/>
      <point x="-25" y="0" type="line"/>
      <point x="126" y="0" type="line"/>
      <point x="458" y="644" type="line"/>
      <point x="375" y="644" type="line"/>
    </contour>
    <contour>
      <point x="524" y="-204" type="curve" smooth="yes"/>
      <point x="546" y="-204"/>
      <point x="575" y="-202"/>
      <point x="597" y="-197" type="curve"/>
      <point x="612" y="-110" type="line"/>
      <point x="591" y="-114"/>
      <point x="575" y="-116"/>
      <point x="557" y="-116" type="curve" smooth="yes"/>
      <point x="530" y="-115"/>
      <point x="517" y="-106"/>
      <point x="517" y="-90" type="curve" smooth="yes"/>
      <point x="517" y="-58"/>
      <point x="561" y="-31"/>
      <point x="618" y="0" type="curve"/>
      <point x="497" y="0" type="line"/>
      <point x="454" y="-23"/>
      <point x="397" y="-67"/>
      <point x="397" y="-128" type="curve" smooth="yes"/>
      <point x="397" y="-175"/>
      <point x="442" y="-204"/>
    </contour>
  </outline>
</glyph>
<glyph name="aogonek" format="2">
  <advance width="600"/>
  <unicode hex="0105"/>
  <outline>
    <contour>
      <point x="420" y="-209" type="curve" smooth="yes"/>
      <point x="442" y="-209"/>
      <point x="471" y="-207"/>
      <point x="493" y="-202" type="curve"/>
      <point x="508" y="-115" type="line"/>
      <point x="487" y="-119"/>
      <point x="471" y="-121"/>
      <point x="453" y="-121" type="curve" smooth="yes"/>
      <point x="426" y="-120"/>
      <point x="413" y="-111"/>
      <point x="413" y="-95" type="curve" smooth="yes"/>
      <point x="413" y="-63"/>
      <point x="457" y="-36"/>
      <point x="514" y="-5" type="curve"/>
      <point x="412" y="5" type="line"/>
      <point x="370" y="-14"/>
      <point x="293" y="-62"/>
      <point x="293" y="-133" type="curve" smooth="yes"/>
      <point x="293" y="-180"/>
      <point x="338" y="-209"/>
    </contour>
    <component base="a"/>
  </outline>
</glyph>
<glyph name="dcroat" format="2">
  <advance width="600"/>
  <unicode hex="0111"/>
  <outline>
    <contour>
      <point x="325" y="547" type="line"/>
      <point x="643" y="547" type="line"/>
      <point x="657" y="627" type="line"/>
      <point x="339" y="627" type="line"/>
    </contour>
    <component base="d" xOffset="-10" identifier="005AA93B"/>
  </outline>
</glyph>
<glyph name="Hbar" format="2">
  <advance width="680"/>
  <unicode hex="0126"/>
  <outline>
    <contour>
      <point x="49" y="500" type="line"/>
      <point x="719" y="500" type="line"/>
      <point x="738" y="608" type="line"/>
      <point x="68" y="608" type="line"/>
    </contour>
    <contour>
      <point x="135" y="279" type="line"/>
      <point x="556" y="279" type="line"/>
      <point x="578" y="403" type="line"/>
      <point x="157" y="403" type="line"/>
    </contour>
    <contour>
      <point x="541" y="700" type="line"/>
      <point x="418" y="0" type="line"/>
      <point x="569" y="0" type="line"/>
      <point x="692" y="700" type="line"/>
    </contour>
    <contour>
      <point x="146" y="700" type="line"/>
      <point x="23" y="0" type="line"/>
      <point x="174" y="0" type="line"/>
      <point x="297" y="700" type="line"/>
    </contour>
  </outline>
</glyph>
<glyph name="itilde" format="2">
  <advance width="350"/>
  <unicode hex="0129"/>
  <outline>
    <contour>
      <point x="183" y="694" type="curve" smooth="yes"/>
      <point x="127" y="694"/>
      <point x="86" y="646"/>
      <point x="69" y="564" type="curve"/>
      <point x="159" y="564" type="line"/>
      <point x="165" y="584"/>
      <point x="172" y="599"/>
      <point x="187" y="599" type="curve" smooth="yes"/>
      <point x="209" y="599"/>
      <point x="260" y="569"/>
      <point x="299" y="569" type="curve"/>
      <point x="355" y="569"/>
      <point x="395" y="617"/>
      <point x="413" y="699" type="curve"/>
      <point x="322" y="699" type="line"/>
      <point x="316" y="679"/>
      <point x="310" y="664"/>
      <point x="295" y="664" type="curve" smooth="yes"/>
      <point x="273" y="664"/>
      <point x="222" y="694"/>
    </contour>
    <component base="dotlessi"/>
  </outline>
</glyph>
<glyph name="Imacron" format="2">
  <advance width="350"/>
  <unicode hex="012A"/>
  <outline>
    <contour>
      <point x="111" y="760" type="line"/>
      <point x="425" y="760" type="line"/>
      <point x="443" y="860" type="line"/>
      <point x="129" y="860" type="line"/>
    </contour>
    <component base="I"/>
  </outline>
</glyph>
<glyph name="ibreve" format="2">
  <advance width="350"/>
  <unicode hex="012D"/>
  <outline>
    <contour>
      <point x="95" y="700" type="line"/>
      <point x="83" y="629"/>
      <point x="125" y="559"/>
      <point x="236" y="559" type="curve" smooth="yes"/>
      <point x="345" y="559"/>
      <point x="399" y="623"/>
      <point x="411" y="700" type="curve"/>
      <point x="304" y="700" type="line"/>
      <point x="300" y="670"/>
      <point x="278" y="648"/>
      <point x="245" y="648" type="curve" smooth="yes"/>
      <point x="212" y="648"/>
      <point x="198" y="670"/>
      <point x="202" y="700" type="curve"/>
    </contour>
    <component base="dotlessi"/>
  </outline>
</glyph>
<glyph name="IJ" format="2">
  <advance width="680"/>
  <unicode hex="0132"/>
  <outline>
    <contour>
      <point x="158" y="700" type="line"/>
      <point x="35" y="0" type="line"/>
      <point x="186" y="0" type="line"/>
      <point x="309" y="700" type="line"/>
    </contour>
    <contour>
      <point x="583" y="159" type="curve" smooth="yes"/>
      <point x="678" y="700" type="line"/>
      <point x="528" y="700" type="line"/>
      <point x="434" y="167" type="line" smooth="yes"/>
      <point x="428" y="131"/>
      <point x="402" y="109"/>
      <point x="357" y="109" type="curve" smooth="yes"/>
      <point x="324" y="109"/>
      <point x="297" y="116"/>
      <point x="272" y="120" type="curve"/>
      <point x="251" y="4" type="line"/>
      <point x="281" y="-3"/>
      <point x="326" y="-12"/>
      <point x="373" y="-12" type="curve" smooth="yes"/>
      <point x="498" y="-12"/>
      <point x="564" y="52"/>
    </contour>
  </outline>
</glyph>
<glyph name="Ldot" format="2">
  <advance width="600"/>
  <unicode hex="013F"/>
  <outline>
    <contour>
      <point x="431" y="485" type="line"/>
      <point x="405" y="336" type="line"/>
      <point x="552" y="336" type="line"/>
      <point x="578" y="485" type="line"/>
    </contour>
    <component base="L"/>
  </outline>
</glyph>
<glyph name="lslash" format="2">
  <advance width="350"/>
  <unicode hex="0142"/>
  <outline>
    <contour>
      <point x="34" y="324" type="line"/>
      <point x="16" y="219" type="line"/>
      <point x="358" y="412" type="line"/>
      <point x="376" y="517" type="line"/>
    </contour>
    <component base="l"/>
  </outline>
</glyph>
<glyph name="Eng" format="2">
  <advance width="680"/>
  <unicode hex="014A"/>
  <guideline x="456" y="118" angle="80.0594" identifier="GAGkHWULLX"/>
  <outline>
    <contour>
      <point x="275" y="-59" type="curve"/>
      <point x="255" y="-174" type="line"/>
      <point x="283" y="-186"/>
      <point x="333" y="-192"/>
      <point x="373" y="-192" type="curve" smooth="yes"/>
      <point x="492" y="-192"/>
      <point x="554" y="-133"/>
      <point x="576" y="-11" type="curve" smooth="yes"/>
      <point x="701" y="700" type="line"/>
      <point x="558" y="700" type="line"/>
      <point x="482" y="265" type="line"/>
      <point x="325" y="700" type="line"/>
      <point x="137" y="700" type="line"/>
      <point x="14" y="0" type="line"/>
      <point x="157" y="0" type="line"/>
      <point x="248" y="519" type="line"/>
      <point x="432" y="11" type="line"/>
      <point x="429" y="-7" type="line" smooth="yes"/>
      <point x="422" y="-43"/>
      <point x="403" y="-71"/>
      <point x="348" y="-71" type="curve" smooth="yes"/>
      <point x="318" y="-71"/>
      <point x="293" y="-64"/>
    </contour>
  </outline>
</glyph>
<glyph name="OE" format="2">
  <advance width="680"/>
  <unicode hex="0152"/>
  <outline>
    <contour>
      <point x="41" y="370" type="curve" smooth="yes"/>
      <point x="-9" y="84"/>
      <point x="72" y="-12"/>
      <point x="185" y="-12" type="curve" smooth="yes"/>
      <point x="238" y="-12"/>
      <point x="281" y="14"/>
      <point x="316" y="64" type="curve"/>
      <point x="305" y="0" type="line"/>
      <point x="612" y="0" type="line"/>
      <point x="634" y="124" type="line"/>
      <point x="440" y="124" type="line"/>
      <point x="470" y="294" type="line"/>
      <point x="589" y="294" type="line"/>
      <point x="610" y="417" type="line"/>
      <point x="491" y="417" type="line"/>
      <point x="519" y="576" type="line"/>
      <point x="695" y="576" type="line"/>
      <point x="717" y="700" type="line"/>
      <point x="428" y="700" type="line"/>
      <point x="414" y="622" type="line"/>
      <point x="395" y="683"/>
      <point x="355" y="712"/>
      <point x="292" y="712" type="curve" smooth="yes"/>
      <point x="193" y="712"/>
      <point x="85" y="616"/>
    </contour>
    <contour>
      <point x="355" y="340" type="curve" smooth="yes"/>
      <point x="324" y="163"/>
      <point x="274" y="112"/>
      <point x="224" y="112" type="curve" smooth="yes"/>
      <point x="173" y="112"/>
      <point x="136" y="163"/>
      <point x="171" y="360" type="curve" smooth="yes"/>
      <point x="202" y="537"/>
      <point x="251" y="589"/>
      <point x="302" y="589" type="curve" smooth="yes"/>
      <point x="352" y="589"/>
      <point x="390" y="537"/>
    </contour>
  </outline>
</glyph>
<glyph name="oe" format="2">
  <advance width="680"/>
  <unicode hex="0153"/>
  <outline>
    <contour>
      <point x="513" y="512" type="curve" smooth="yes"/>
      <point x="368" y="512"/>
      <point x="300" y="325.625"/>
      <point x="300" y="174" type="curve" smooth="yes"/>
      <point x="300" y="61"/>
      <point x="351" y="-12"/>
      <point x="451" y="-12" type="curve" smooth="yes"/>
      <point x="518" y="-12"/>
      <point x="598" y="33"/>
      <point x="633" y="136" type="curve"/>
      <point x="517" y="166" type="line"/>
      <point x="498" y="114"/>
      <point x="482" y="98"/>
      <point x="452" y="98" type="curve" smooth="yes"/>
      <point x="424" y="98"/>
      <point x="400" y="113"/>
      <point x="400" y="176" type="curve" smooth="yes"/>
      <point x="400" y="271"/>
      <point x="432" y="400"/>
      <point x="497" y="400" type="curve" smooth="yes"/>
      <point x="524" y="400"/>
      <point x="546" y="385"/>
      <point x="546" y="328" type="curve" smooth="yes"/>
      <point x="546" y="308"/>
      <point x="543" y="283"/>
      <point x="537" y="252" type="curve"/>
      <point x="608" y="308" type="line"/>
      <point x="341" y="308" type="line"/>
      <point x="323" y="205" type="line"/>
      <point x="649" y="205" type="line"/>
      <point x="656" y="243" type="line" smooth="yes"/>
      <point x="661" y="273"/>
      <point x="664" y="301"/>
      <point x="664" y="326" type="curve" smooth="yes"/>
      <point x="664" y="453"/>
      <point x="600" y="512"/>
    </contour>
    <contour>
      <point x="286" y="321" type="curve" smooth="yes"/>
      <point x="286" y="236"/>
      <point x="256" y="99"/>
      <point x="190" y="99" type="curve" smooth="yes"/>
      <point x="160" y="99"/>
      <point x="141" y="120"/>
      <point x="141" y="177" type="curve" smooth="yes"/>
      <point x="141" y="266"/>
      <point x="163" y="399"/>
      <point x="237" y="399" type="curve" smooth="yes"/>
      <point x="266" y="399"/>
      <point x="286" y="379"/>
    </contour>
    <contour>
      <point x="244" y="512" type="curve" smooth="yes"/>
      <point x="96" y="512"/>
      <point x="18" y="343.677"/>
      <point x="18" y="180" type="curve" smooth="yes"/>
      <point x="18" y="38"/>
      <point x="95" y="-12"/>
      <point x="180" y="-12" type="curve" smooth="yes"/>
      <point x="329" y="-12"/>
      <point x="394" y="167.214"/>
      <point x="394" y="327" type="curve" smooth="yes"/>
      <point x="394" y="452"/>
      <point x="333" y="512"/>
    </contour>
  </outline>
</glyph>
<glyph name="tbar" format="2">
  <advance width="600"/>
  <unicode hex="0167"/>
  <outline>
    <contour>
      <point x="22" y="223" type="line"/>
      <point x="526" y="223" type="line"/>
      <point x="545" y="330" type="line"/>
      <point x="41" y="330" type="line"/>
    </contour>
    <component base="t"/>
  </outline>
</glyph>
<glyph name="Uogonek" format="2">
  <advance width="680"/>
  <unicode hex="0172"/>
  <outline>
    <contour>
      <point x="623" y="248" type="curve" smooth="yes"/>
      <point x="703" y="700" type="line"/>
      <point x="558" y="700" type="line"/>
      <point x="480" y="261" type="line" smooth="yes"/>
      <point x="465" y="177"/>
      <point x="412" y="117"/>
      <point x="326" y="117" type="curve" smooth="yes"/>
      <point x="256" y="117"/>
      <point x="204" y="160"/>
      <point x="204" y="239" type="curve" smooth="yes"/>
      <point x="204" y="249"/>
      <point x="205" y="261"/>
      <point x="207" y="273" type="curve" smooth="yes"/>
      <point x="281" y="700" type="line"/>
      <point x="135" y="700" type="line"/>
      <point x="58" y="271" type="line" smooth="yes"/>
      <point x="54" y="251"/>
      <point x="53" y="232"/>
      <point x="53" y="214" type="curve" smooth="yes"/>
      <point x="53" y="91"/>
      <point x="132" y="9"/>
      <point x="260" y="-8" type="curve"/>
      <point x="220" y="-33"/>
      <point x="175" y="-74"/>
      <point x="175" y="-128" type="curve" smooth="yes"/>
      <point x="175" y="-175"/>
      <point x="220" y="-204"/>
      <point x="302" y="-204" type="curve" smooth="yes"/>
      <point x="324" y="-204"/>
      <point x="353" y="-202"/>
      <point x="375" y="-197" type="curve"/>
      <point x="390" y="-110" type="line"/>
      <point x="369" y="-114"/>
      <point x="353" y="-116"/>
      <point x="335" y="-116" type="curve" smooth="yes"/>
      <point x="308" y="-115"/>
      <point x="295" y="-106"/>
      <point x="295" y="-90" type="curve" smooth="yes"/>
      <point x="295" y="-60"/>
      <point x="334" y="-25"/>
      <point x="391" y="-9" type="curve" smooth="yes"/>
      <point x="525" y="29"/>
      <point x="600" y="114"/>
    </contour>
  </outline>
</glyph>
<glyph name="uogonek" format="2">
  <advance width="600"/>
  <unicode hex="0173"/>
  <outline>
    <contour>
      <point x="485" y="0" type="line"/>
      <point x="573" y="500" type="line"/>
      <point x="433" y="500" type="line"/>
      <point x="381" y="208" type="line" smooth="yes"/>
      <point x="370" y="148"/>
      <point x="326" y="109"/>
      <point x="269" y="109" type="curve" smooth="yes"/>
      <point x="217" y="109"/>
      <point x="190" y="143"/>
      <point x="190" y="187" type="curve" smooth="yes"/>
      <point x="190" y="193"/>
      <point x="191" y="199"/>
      <point x="192" y="206" type="curve" smooth="yes"/>
      <point x="244" y="500" type="line"/>
      <point x="104" y="500" type="line"/>
      <point x="47" y="179" type="line" smooth="yes"/>
      <point x="44" y="164"/>
      <point x="43" y="150"/>
      <point x="43" y="137" type="curve" smooth="yes"/>
      <point x="43" y="42"/>
      <point x="106" y="-12"/>
      <point x="200" y="-12" type="curve" smooth="yes"/>
      <point x="284" y="-12"/>
      <point x="346" y="36"/>
      <point x="384" y="107" type="curve"/>
      <point x="362" y="98" type="line"/>
      <point x="337" y="-44" type="line"/>
    </contour>
    <component base="ogonek" xOffset="158"/>
  </outline>
</glyph>
<glyph name="Bhook" format="2">
  <advance width="680"/>
  <unicode hex="0181"/>
  <outline>
    <contour>
      <point x="256" y="700" type="line"/>
      <point x="133" y="0" type="line"/>
      <point x="275" y="0" type="line"/>
      <point x="398" y="700" type="line"/>
    </contour>
    <contour>
      <point x="422" y="0" type="line" smooth="yes"/>
      <point x="569" y="0"/>
      <point x="647" y="95"/>
      <point x="647" y="214" type="curve" smooth="yes"/>
      <point x="647" y="291"/>
      <point x="607" y="341"/>
      <point x="560" y="361" type="curve"/>
      <point x="557" y="343" type="line"/>
      <point x="634" y="367"/>
      <point x="690" y="454"/>
      <point x="690" y="540" type="curve" smooth="yes"/>
      <point x="690" y="632"/>
      <point x="623" y="700"/>
      <point x="505" y="700" type="curve" smooth="yes"/>
      <point x="321" y="700" type="line"/>
      <point x="300" y="577" type="line"/>
      <point x="481" y="577" type="line" smooth="yes"/>
      <point x="523" y="577"/>
      <point x="546" y="552"/>
      <point x="546" y="511" type="curve" smooth="yes"/>
      <point x="546" y="459"/>
      <point x="516" y="420"/>
      <point x="467" y="420" type="curve" smooth="yes"/>
      <point x="271" y="420" type="line"/>
      <point x="249" y="298" type="line"/>
      <point x="438" y="298" type="line" smooth="yes"/>
      <point x="482" y="298"/>
      <point x="508" y="270"/>
      <point x="508" y="225" type="curve" smooth="yes"/>
      <point x="508" y="158"/>
      <point x="468" y="123"/>
      <point x="415" y="123" type="curve" smooth="yes"/>
      <point x="220" y="123" type="line"/>
      <point x="198" y="0" type="line"/>
    </contour>
    <contour>
      <point x="342" y="700" type="line"/>
      <point x="240" y="700" type="line" smooth="yes"/>
      <point x="104" y="700"/>
      <point x="49" y="595"/>
      <point x="49" y="483" type="curve" smooth="yes"/>
      <point x="49" y="457"/>
      <point x="52" y="437"/>
      <point x="57" y="424" type="curve"/>
      <point x="185" y="429" type="line"/>
      <point x="178" y="447"/>
      <point x="174" y="468"/>
      <point x="174" y="489" type="curve" smooth="yes"/>
      <point x="174" y="530"/>
      <point x="184" y="577"/>
      <point x="241" y="577" type="curve" smooth="yes"/>
      <point x="324" y="577" type="line"/>
    </contour>
  </outline>
</glyph>
<glyph name="Oopen" format="2">
  <advance width="680"/>
  <unicode hex="0186"/>
  <outline>
    <contour>
      <point x="304" y="-12" type="curve" smooth="yes"/>
      <point x="544" y="-12"/>
      <point x="662" y="225"/>
      <point x="662" y="425" type="curve" smooth="yes"/>
      <point x="662" y="605"/>
      <point x="559" y="712"/>
      <point x="393" y="712" type="curve" smooth="yes"/>
      <point x="249" y="712"/>
      <point x="138" y="621"/>
      <point x="86" y="497" type="curve"/>
      <point x="217" y="452" type="line"/>
      <point x="253" y="540"/>
      <point x="315" y="584"/>
      <point x="381" y="584" type="curve" smooth="yes"/>
      <point x="461" y="584"/>
      <point x="510" y="531"/>
      <point x="510" y="422" type="curve" smooth="yes"/>
      <point x="510" y="266"/>
      <point x="436" y="116"/>
      <point x="313" y="116" type="curve" smooth="yes"/>
      <point x="239" y="116"/>
      <point x="188" y="163"/>
      <point x="178" y="258" type="curve"/>
      <point x="39" y="222" type="line"/>
      <point x="51" y="76"/>
      <point x="155" y="-12"/>
    </contour>
  </outline>
</glyph>
<glyph name="Dhook" format="2">
  <advance width="680"/>
  <unicode hex="018A"/>
  <outline>
    <contour>
      <point x="343" y="700" type="line"/>
      <point x="241" y="700" type="line" smooth="yes"/>
      <point x="105" y="700"/>
      <point x="50" y="595"/>
      <point x="50" y="483" type="curve" smooth="yes"/>
      <point x="50" y="457"/>
      <point x="53" y="437"/>
      <point x="58" y="424" type="curve"/>
      <point x="186" y="429" type="line"/>
      <point x="179" y="447"/>
      <point x="175" y="468"/>
      <point x="175" y="489" type="curve" smooth="yes"/>
      <point x="175" y="530"/>
      <point x="185" y="577"/>
      <point x="242" y="577" type="curve" smooth="yes"/>
      <point x="325" y="577" type="line"/>
    </contour>
    <contour>
      <point x="134" y="0" type="line"/>
      <point x="274" y="0" type="line"/>
      <point x="397" y="700" type="line"/>
      <point x="257" y="700" type="line"/>
    </contour>
    <contour>
      <point x="209" y="123" type="line"/>
      <point x="187" y="0" type="line"/>
      <point x="380" y="0" type="line" smooth="yes"/>
      <point x="583" y="0"/>
      <point x="678" y="251"/>
      <point x="678" y="430" type="curve" smooth="yes"/>
      <point x="678" y="602"/>
      <point x="592" y="700"/>
      <point x="446" y="700" type="curve" smooth="yes"/>
      <point x="310" y="700" type="line"/>
      <point x="289" y="577" type="line"/>
      <point x="420" y="577" type="line" smooth="yes"/>
      <point x="489" y="577"/>
      <point x="534" y="530"/>
      <point x="534" y="424" type="curve" smooth="yes"/>
      <point x="534" y="329"/>
      <point x="499" y="123"/>
      <point x="364" y="123" type="curve" smooth="yes"/>
    </contour>
  </outline>
</glyph>
<glyph name="Schwa" format="2">
  <advance width="680"/>
  <unicode hex="018F"/>
  <outline>
    <contour>
      <point x="308" y="-12" type="curve" smooth="yes"/>
      <point x="550" y="-12"/>
      <point x="673" y="224"/>
      <point x="673" y="426" type="curve" smooth="yes"/>
      <point x="673" y="607"/>
      <point x="567" y="712"/>
      <point x="399" y="712" type="curve" smooth="yes"/>
      <point x="263" y="712"/>
      <point x="150" y="638"/>
      <point x="92" y="520" type="curve"/>
      <point x="224" y="474" type="line"/>
      <point x="261" y="545"/>
      <point x="319" y="585"/>
      <point x="388" y="585" type="curve" smooth="yes"/>
      <point x="469" y="585"/>
      <point x="521" y="533"/>
      <point x="521" y="423" type="curve" smooth="yes"/>
      <point x="521" y="304"/>
      <point x="466" y="116"/>
      <point x="320" y="116" type="curve" smooth="yes"/>
      <point x="238" y="116"/>
      <point x="190" y="167"/>
      <point x="190" y="265" type="curve" smooth="yes"/>
      <point x="190" y="283"/>
      <point x="194" y="308"/>
      <point x="197" y="330" type="curve"/>
      <point x="159" y="280" type="line"/>
      <point x="568" y="280" type="line"/>
      <point x="590" y="403" type="line"/>
      <point x="59" y="403" type="line"/>
      <point x="51" y="359" type="line" smooth="yes"/>
      <point x="46" y="329"/>
      <point x="44" y="301"/>
      <point x="44" y="273" type="curve" smooth="yes"/>
      <point x="44" y="101"/>
      <point x="144" y="-12"/>
    </contour>
  </outline>
</glyph>
<glyph name="Khook" format="2">
  <advance width="680"/>
  <unicode hex="0198"/>
  <outline>
    <contour>
      <point x="137" y="700" type="line"/>
      <point x="13" y="0" type="line"/>
      <point x="160" y="0" type="line"/>
      <point x="284" y="700" type="line"/>
    </contour>
    <contour>
      <point x="263" y="340" type="line"/>
      <point x="440" y="0" type="line"/>
      <point x="600" y="0" type="line"/>
      <point x="368" y="442" type="line"/>
    </contour>
    <contour>
      <point x="558" y="546" type="line" smooth="yes"/>
      <point x="584" y="571"/>
      <point x="606" y="581"/>
      <point x="629" y="581" type="curve" smooth="yes"/>
      <point x="653" y="581"/>
      <point x="670" y="573"/>
      <point x="685" y="563" type="curve"/>
      <point x="711" y="691" type="line"/>
      <point x="689" y="704"/>
      <point x="661" y="712"/>
      <point x="629" y="712" type="curve" smooth="yes"/>
      <point x="572" y="712"/>
      <point x="521" y="692"/>
      <point x="468" y="640" type="curve" smooth="yes"/>
      <point x="135" y="315" type="line"/>
      <point x="118" y="139" type="line"/>
      <point x="327" y="333" type="line"/>
      <point x="362" y="358" type="line"/>
    </contour>
  </outline>
</glyph>
<glyph name="Nhookleft" format="2">
  <advance width="680"/>
  <unicode hex="019D"/>
  <outline>
    <contour>
      <point x="-103" y="-71" type="curve"/>
      <point x="-122" y="-182" type="line"/>
      <point x="-101" y="-188"/>
      <point x="-78" y="-192"/>
      <point x="-48" y="-192" type="curve" smooth="yes"/>
      <point x="60" y="-192"/>
      <point x="131" y="-138"/>
      <point x="151" y="-32" type="curve" smooth="yes"/>
      <point x="247" y="512" type="line"/>
      <point x="422" y="0" type="line"/>
      <point x="578" y="0" type="line"/>
      <point x="701" y="700" type="line"/>
      <point x="558" y="700" type="line"/>
      <point x="479" y="248" type="line"/>
      <point x="325" y="700" type="line"/>
      <point x="137" y="700" type="line"/>
      <point x="11" y="-15" type="line" smooth="yes"/>
      <point x="2" y="-60"/>
      <point x="-33" y="-76"/>
      <point x="-72" y="-76" type="curve" smooth="yes"/>
      <point x="-80" y="-76"/>
      <point x="-91" y="-75"/>
    </contour>
  </outline>
</glyph>
<glyph name="icaron" format="2">
  <advance width="350"/>
  <unicode hex="01D0"/>
  <outline>
    <contour>
      <point x="296" y="564" type="line"/>
      <point x="430" y="700" type="line"/>
      <point x="313" y="700" type="line"/>
      <point x="180" y="602" type="line"/>
      <point x="286" y="602" type="line"/>
      <point x="187" y="700" type="line"/>
      <point x="76" y="700" type="line"/>
      <point x="162" y="564" type="line"/>
    </contour>
    <component base="dotlessi"/>
  </outline>
</glyph>
<glyph name="Oogonek" format="2">
  <advance width="680"/>
  <unicode hex="01EA"/>
  <outline>
    <contour>
      <point x="674" y="424" type="curve" smooth="yes"/>
      <point x="674" y="605"/>
      <point x="567" y="712"/>
      <point x="402" y="712" type="curve" smooth="yes"/>
      <point x="164" y="712"/>
      <point x="42" y="479"/>
      <point x="42" y="276" type="curve" smooth="yes"/>
      <point x="42" y="120"/>
      <point x="122" y="18"/>
      <point x="250" y="-6" type="curve"/>
      <point x="209" y="-30"/>
      <point x="161" y="-72"/>
      <point x="161" y="-128" type="curve" smooth="yes"/>
      <point x="161" y="-175"/>
      <point x="206" y="-204"/>
      <point x="288" y="-204" type="curve" smooth="yes"/>
      <point x="310" y="-204"/>
      <point x="339" y="-202"/>
      <point x="361" y="-197" type="curve"/>
      <point x="376" y="-110" type="line"/>
      <point x="355" y="-114"/>
      <point x="339" y="-116"/>
      <point x="321" y="-116" type="curve" smooth="yes"/>
      <point x="294" y="-115"/>
      <point x="281" y="-106"/>
      <point x="281" y="-90" type="curve" smooth="yes"/>
      <point x="281" y="-61"/>
      <point x="332" y="-17"/>
      <point x="378" y="-6" type="curve" smooth="yes"/>
      <point x="577" y="41"/>
      <point x="674" y="237"/>
    </contour>
    <contour>
      <point x="323" y="116" type="curve" smooth="yes"/>
      <point x="243" y="116"/>
      <point x="195" y="170"/>
      <point x="195" y="279" type="curve" smooth="yes"/>
      <point x="195" y="437"/>
      <point x="272" y="584"/>
      <point x="393" y="584" type="curve" smooth="yes"/>
      <point x="473" y="584"/>
      <point x="521" y="530"/>
      <point x="521" y="421" type="curve" smooth="yes"/>
      <point x="521" y="263"/>
      <point x="444" y="116"/>
    </contour>
  </outline>
</glyph>
<glyph name="dotlessj" format="2">
  <advance width="350"/>
  <unicode hex="0237"/>
  <guideline x="126" y="490" angle="90" name="center" identifier="DGWn45mAjh"/>
  <outline>
    <contour>
      <point x="188" y="-74" type="curve" smooth="yes"/>
      <point x="289" y="500" type="line"/>
      <point x="149" y="500" type="line"/>
      <point x="55" y="-35" type="line" smooth="yes"/>
      <point x="49" y="-68"/>
      <point x="37" y="-81"/>
      <point x="9" y="-81" type="curve" smooth="yes"/>
      <point x="0" y="-81"/>
      <point x="-8" y="-80"/>
      <point x="-22" y="-78" type="curve"/>
      <point x="-39" y="-180" type="line"/>
      <point x="-25" y="-185"/>
      <point x="6" y="-190"/>
      <point x="34" y="-190" type="curve" smooth="yes"/>
      <point x="99" y="-190"/>
      <point x="172" y="-163"/>
    </contour>
    <contour>
      <point x="130" y="393" type="line"/>
      <point x="199" y="393" type="line"/>
      <point x="218" y="500" type="line"/>
      <point x="149" y="500" type="line"/>
    </contour>
  </outline>
</glyph>
<glyph name="schwa" format="2">
  <advance width="600"/>
  <unicode hex="0259"/>
  <outline>
    <contour>
      <point x="555" y="291" type="curve" smooth="yes"/>
      <point x="555" y="415"/>
      <point x="471" y="512"/>
      <point x="324" y="512" type="curve" smooth="yes"/>
      <point x="215" y="512"/>
      <point x="130" y="462"/>
      <point x="79" y="371" type="curve"/>
      <point x="199" y="332" type="line"/>
      <point x="221" y="378"/>
      <point x="264" y="402"/>
      <point x="316" y="402" type="curve" smooth="yes"/>
      <point x="384" y="402"/>
      <point x="415" y="362"/>
      <point x="415" y="281" type="curve" smooth="yes"/>
      <point x="415" y="199"/>
      <point x="372" y="100"/>
      <point x="273" y="100" type="curve" smooth="yes"/>
      <point x="201" y="100"/>
      <point x="179" y="144"/>
      <point x="179" y="198" type="curve" smooth="yes"/>
      <point x="179" y="215"/>
      <point x="181" y="234"/>
      <point x="185" y="252" type="curve"/>
      <point x="134" y="192" type="line"/>
      <point x="473" y="192" type="line"/>
      <point x="490" y="296" type="line"/>
      <point x="60" y="296" type="line"/>
      <point x="54" y="264" type="line" smooth="yes"/>
      <point x="51" y="246"/>
      <point x="49" y="228"/>
      <point x="49" y="211" type="curve" smooth="yes"/>
      <point x="49" y="93"/>
      <point x="124" y="-12"/>
      <point x="264" y="-12" type="curve" smooth="yes"/>
      <point x="440" y="-12"/>
      <point x="555" y="125"/>
    </contour>
  </outline>
</glyph>
<glyph name="nhookleft" format="2">
  <advance width="600"/>
  <unicode hex="0272"/>
  <outline>
    <contour>
      <point x="-70" y="-180" type="line"/>
      <point x="-55" y="-185"/>
      <point x="-16" y="-190"/>
      <point x="7" y="-190" type="curve" smooth="yes"/>
      <point x="74" y="-190"/>
      <point x="138" y="-164"/>
      <point x="153" y="-81" type="curve" smooth="yes"/>
      <point x="219" y="292" type="line" smooth="yes"/>
      <point x="230" y="352"/>
      <point x="274" y="391"/>
      <point x="331" y="391" type="curve" smooth="yes"/>
      <point x="383" y="391"/>
      <point x="410" y="357"/>
      <point x="410" y="313" type="curve" smooth="yes"/>
      <point x="410" y="307"/>
      <point x="409" y="301"/>
      <point x="408" y="294" type="curve" smooth="yes"/>
      <point x="356" y="0" type="line"/>
      <point x="496" y="0" type="line"/>
      <point x="553" y="321" type="line" smooth="yes"/>
      <point x="556" y="336"/>
      <point x="557" y="350"/>
      <point x="557" y="363" type="curve" smooth="yes"/>
      <point x="557" y="458"/>
      <point x="494" y="512"/>
      <point x="400" y="512" type="curve" smooth="yes"/>
      <point x="334" y="512"/>
      <point x="282" y="482"/>
      <point x="244" y="435" type="curve"/>
      <point x="255" y="500" type="line"/>
      <point x="115" y="500" type="line"/>
      <point x="19" y="-45" type="line" smooth="yes"/>
      <point x="15" y="-68"/>
      <point x="2" y="-81"/>
      <point x="-23" y="-81" type="curve" smooth="yes"/>
      <point x="-35" y="-81"/>
      <point x="-43" y="-79"/>
      <point x="-52" y="-78" type="curve"/>
    </contour>
  </outline>
</glyph>
<glyph name="vturned" format="2">
  <advance width="600"/>
  <unicode hex="028C"/>
  <outline>
    <contour>
      <point x="421" y="500" type="line"/>
      <point x="266" y="500" type="line"/>
      <point x="-23" y="0" type="line"/>
      <point x="132" y="0" type="line"/>
      <point x="387" y="461" type="line"/>
      <point x="301" y="461" type="line"/>
      <point x="396" y="0" type="line"/>
      <point x="535" y="0" type="line"/>
    </contour>
  </outline>
</glyph>
<glyph name="ringhalfleftmod" format="2">
  <advance width="350"/>
  <unicode hex="02BF"/>
  <outline>
    <contour>
      <point x="319" y="601" type="curve" smooth="yes"/>
      <point x="338" y="601" type="line"/>
      <point x="355" y="700" type="line"/>
      <point x="331" y="700" type="line" smooth="yes"/>
      <point x="191" y="700"/>
      <point x="123" y="609"/>
      <point x="123" y="509" type="curve" smooth="yes"/>
      <point x="123" y="429"/>
      <point x="169" y="370"/>
      <point x="283" y="370" type="curve" smooth="yes"/>
      <point x="297" y="370" type="line"/>
      <point x="314" y="469" type="line"/>
      <point x="299" y="469" type="line"/>
      <point x="258" y="469"/>
      <point x="236" y="492"/>
      <point x="236" y="527" type="curve" smooth="yes"/>
      <point x="236" y="572"/>
      <point x="271" y="601"/>
    </contour>
  </outline>
</glyph>
<glyph name="dotaccentcmb" format="2">
  <advance width="600"/>
  <unicode hex="0307"/>
  <outline>
    <contour>
      <point x="307" y="700" type="line"/>
      <point x="283" y="564" type="line"/>
      <point x="427" y="564" type="line"/>
      <point x="451" y="700" type="line"/>
    </contour>
  </outline>
</glyph>
<glyph name="hungarumlautcmb" format="2">
  <advance width="600"/>
  <unicode hex="030B"/>
  <guideline x="266" y="570" angle="90" name="center" identifier="0iHH8rkSqb"/>
  <outline>
    <contour>
      <point x="257" y="700" type="line"/>
      <point x="184" y="564" type="line"/>
      <point x="293" y="564" type="line"/>
      <point x="388" y="700" type="line"/>
    </contour>
    <contour>
      <point x="419" y="700" type="line"/>
      <point x="346" y="564" type="line"/>
      <point x="455" y="564" type="line"/>
      <point x="550" y="700" type="line"/>
    </contour>
  </outline>
</glyph>
<glyph name="horncmb" format="2">
  <advance width="600"/>
  <unicode hex="031B"/>
  <outline>
    <contour>
      <point x="376" y="586" type="line"/>
      <point x="376" y="579"/>
      <point x="377" y="571"/>
      <point x="377" y="565" type="curve" smooth="yes"/>
      <point x="377" y="514"/>
      <point x="361" y="500"/>
      <point x="321" y="500" type="curve" smooth="yes"/>
      <point x="247" y="500" type="line"/>
      <point x="230" y="402" type="line"/>
      <point x="322" y="402" type="line" smooth="yes"/>
      <point x="441" y="402"/>
      <point x="478" y="462"/>
      <point x="478" y="556" type="curve" smooth="yes"/>
      <point x="478" y="567"/>
      <point x="477" y="577"/>
      <point x="475" y="586" type="curve"/>
    </contour>
  </outline>
</glyph>
<glyph name="rlinebelow" format="2">
  <advance width="600"/>
  <unicode hex="1E5F"/>
  <outline>
    <contour>
      <point x="-56" y="-178" type="line"/>
      <point x="254" y="-178" type="line"/>
      <point x="272" y="-77" type="line"/>
      <point x="-38" y="-77" type="line"/>
    </contour>
    <component base="r"/>
  </outline>
</glyph>
<glyph name="Germandbls" format="2">
  <advance width="680"/>
  <unicode hex="1E9E"/>
  <outline>
    <contour>
      <point x="137" y="700" type="line"/>
      <point x="13" y="0" type="line"/>
      <point x="164" y="0" type="line"/>
      <point x="288" y="700" type="line"/>
    </contour>
    <contour>
      <point x="671" y="577" type="line"/>
      <point x="693" y="700" type="line"/>
      <point x="194" y="700" type="line"/>
      <point x="172" y="577" type="line"/>
      <point x="567" y="577" type="line"/>
      <point x="537" y="613" type="line"/>
      <point x="312" y="418" type="line"/>
      <point x="294" y="314" type="line"/>
      <point x="375" y="314" type="line" smooth="yes"/>
      <point x="448" y="314"/>
      <point x="492" y="283"/>
      <point x="492" y="227" type="curve" smooth="yes"/>
      <point x="492" y="165"/>
      <point x="439" y="109"/>
      <point x="343" y="109" type="curve" smooth="yes"/>
      <point x="315" y="109"/>
      <point x="283" y="116"/>
      <point x="250" y="127" type="curve"/>
      <point x="229" y="7" type="line"/>
      <point x="268" y="-5"/>
      <point x="308" y="-12"/>
      <point x="349" y="-12" type="curve" smooth="yes"/>
      <point x="556" y="-12"/>
      <point x="647" y="114"/>
      <point x="647" y="245" type="curve" smooth="yes"/>
      <point x="647" y="352"/>
      <point x="576" y="428"/>
      <point x="411" y="428" type="curve" smooth="yes"/>
      <point x="371" y="428" type="line"/>
      <point x="446" y="401" type="line"/>
    </contour>
  </outline>
</glyph>
<glyph name="Uhorndotbelow" format="2">
  <advance width="680"/>
  <unicode hex="1EF0"/>
  <outline>
    <contour>
      <point x="623" y="248" type="curve" smooth="yes"/>
      <point x="703" y="700" type="line"/>
      <point x="558" y="700" type="line"/>
      <point x="480" y="261" type="line" smooth="yes"/>
      <point x="465" y="177"/>
      <point x="412" y="117"/>
      <point x="326" y="117" type="curve" smooth="yes"/>
      <point x="256" y="117"/>
      <point x="204" y="160"/>
      <point x="204" y="239" type="curve" smooth="yes"/>
      <point x="204" y="249"/>
      <point x="205" y="261"/>
      <point x="207" y="273" type="curve" smooth="yes"/>
      <point x="281" y="700" type="line"/>
      <point x="135" y="700" type="line"/>
      <point x="58" y="271" type="line" smooth="yes"/>
      <point x="54" y="251"/>
      <point x="53" y="232"/>
      <point x="53" y="214" type="curve" smooth="yes"/>
      <point x="53" y="75"/>
      <point x="155" y="-12"/>
      <point x="314" y="-12" type="curve" smooth="yes"/>
      <point x="496" y="-12"/>
      <point x="596" y="93"/>
    </contour>
    <contour>
      <point x="714" y="791" type="line"/>
      <point x="713" y="782"/>
      <point x="713" y="779"/>
      <point x="712" y="774" type="curve" smooth="yes"/>
      <point x="703" y="722"/>
      <point x="691" y="700"/>
      <point x="645" y="700" type="curve" smooth="yes"/>
      <point x="568" y="700" type="line"/>
      <point x="551" y="601" type="line"/>
      <point x="630" y="601" type="line" smooth="yes"/>
      <point x="774" y="601"/>
      <point x="808" y="670"/>
      <point x="823" y="773" type="curve" smooth="yes"/>
      <point x="824" y="780"/>
      <point x="825" y="787"/>
      <point x="825" y="791" type="curve"/>
    </contour>
    <component base="dotbelowcmb.uc" xOffset="41"/>
  </outline>
</glyph>
<glyph name="quotedblleft" format="2">
  <advance width="600"/>
  <unicode hex="201C"/>
  <outline>
    <contour>
      <point x="484" y="394" type="line"/>
      <point x="512" y="552" type="line"/>
      <point x="435" y="552" type="line"/>
      <point x="437" y="565" type="line" smooth="yes"/>
      <point x="446" y="616"/>
      <point x="483" y="651"/>
      <point x="552" y="651" type="curve"/>
      <point x="562" y="712" type="line"/>
      <point x="431" y="712"/>
      <point x="376" y="618"/>
      <point x="366" y="564" type="curve" smooth="yes"/>
      <point x="336" y="394" type="line"/>
    </contour>
    <contour>
      <point x="287" y="394" type="line"/>
      <point x="315" y="552" type="line"/>
      <point x="238" y="552" type="line"/>
      <point x="240" y="565" type="line" smooth="yes"/>
      <point x="249" y="616"/>
      <point x="286" y="651"/>
      <point x="355" y="651" type="curve"/>
      <point x="365" y="712" type="line"/>
      <point x="234" y="712"/>
      <point x="179" y="618"/>
      <point x="169" y="564" type="curve" smooth="yes"/>
      <point x="139" y="394" type="line"/>
    </contour>
  </outline>
</glyph>
<glyph name="quotedblright" format="2">
  <advance width="600"/>
  <unicode hex="201D"/>
  <outline>
    <contour>
      <point x="216" y="700" type="line"/>
      <point x="188" y="542" type="line"/>
      <point x="265" y="542" type="line"/>
      <point x="263" y="529" type="line" smooth="yes"/>
      <point x="254" y="478"/>
      <point x="217" y="443"/>
      <point x="148" y="443" type="curve"/>
      <point x="138" y="382" type="line"/>
      <point x="269" y="382"/>
      <point x="324" y="476"/>
      <point x="334" y="530" type="curve" smooth="yes"/>
      <point x="364" y="700" type="line"/>
    </contour>
    <contour>
      <point x="413" y="700" type="line"/>
      <point x="385" y="542" type="line"/>
      <point x="462" y="542" type="line"/>
      <point x="460" y="529" type="line" smooth="yes"/>
      <point x="451" y="478"/>
      <point x="414" y="443"/>
      <point x="345" y="443" type="curve"/>
      <point x="335" y="382" type="line"/>
      <point x="466" y="382"/>
      <point x="521" y="476"/>
      <point x="531" y="530" type="curve" smooth="yes"/>
      <point x="561" y="700" type="line"/>
    </contour>
  </outline>
</glyph>
<glyph name="quotedblbase" format="2">
  <advance width="600"/>
  <unicode hex="201E"/>
  <outline>
    <contour>
      <point x="120" y="158" type="line"/>
      <point x="92" y="0" type="line"/>
      <point x="169" y="0" type="line"/>
      <point x="167" y="-13" type="line" smooth="yes"/>
      <point x="158" y="-64"/>
      <point x="121" y="-99"/>
      <point x="52" y="-99" type="curve"/>
      <point x="42" y="-160" type="line"/>
      <point x="173" y="-160"/>
      <point x="228" y="-66"/>
      <point x="238" y="-12" type="curve" smooth="yes"/>
      <point x="268" y="158" type="line"/>
    </contour>
    <contour>
      <point x="317" y="158" type="line"/>
      <point x="289" y="0" type="line"/>
      <point x="366" y="0" type="line"/>
      <point x="364" y="-13" type="line" smooth="yes"/>
      <point x="355" y="-64"/>
      <point x="318" y="-99"/>
      <point x="249" y="-99" type="curve"/>
      <point x="239" y="-160" type="line"/>
      <point x="370" y="-160"/>
      <point x="425" y="-66"/>
      <point x="435" y="-12" type="curve" smooth="yes"/>
      <point x="465" y="158" type="line"/>
    </contour>
  </outline>
</glyph>
<glyph name="daggerdbl" format="2">
  <advance width="350"/>
  <unicode hex="2021"/>
  <outline>
    <contour>
      <point x="124" y="280" type="line"/>
      <point x="236" y="280" type="line"/>
      <point x="310" y="700" type="line"/>
      <point x="198" y="700" type="line"/>
    </contour>
    <contour>
      <point x="84" y="615" type="line"/>
      <point x="68" y="523" type="line"/>
      <point x="378" y="523" type="line"/>
      <point x="394" y="615" type="line"/>
    </contour>
    <contour>
      <point x="56" y="457" type="line"/>
      <point x="40" y="365" type="line"/>
      <point x="350" y="365" type="line"/>
      <point x="366" y="457" type="line"/>
    </contour>
  </outline>
</glyph>
<glyph name="bullet" format="2">
  <advance width="600"/>
  <unicode hex="2022"/>
  <outline>
    <contour>
      <point x="297" y="116" type="curve" smooth="yes"/>
      <point x="421" y="116"/>
      <point x="504" y="221"/>
      <point x="504" y="326" type="curve" smooth="yes"/>
      <point x="504" y="424"/>
      <point x="429" y="502"/>
      <point x="325" y="502" type="curve" smooth="yes"/>
      <point x="201" y="502"/>
      <point x="118" y="397"/>
      <point x="118" y="292" type="curve" smooth="yes"/>
      <point x="118" y="194"/>
      <point x="193" y="116"/>
    </contour>
  </outline>
</glyph>
<glyph name="ellipsis" format="2">
  <advance width="680"/>
  <unicode hex="2026"/>
  <outline>
    <contour>
      <point x="24" y="148" type="line"/>
      <point x="-2" y="0" type="line"/>
      <point x="142" y="0" type="line"/>
      <point x="168" y="148" type="line"/>
    </contour>
    <contour>
      <point x="251" y="148" type="line"/>
      <point x="225" y="0" type="line"/>
      <point x="369" y="0" type="line"/>
      <point x="395" y="148" type="line"/>
    </contour>
    <contour>
      <point x="477" y="148" type="line"/>
      <point x="451" y="0" type="line"/>
      <point x="595" y="0" type="line"/>
      <point x="621" y="148" type="line"/>
    </contour>
  </outline>
</glyph>
<glyph name="perthousand" format="2">
  <advance width="680"/>
  <unicode hex="2030"/>
  <outline>
    <contour>
      <point x="256" y="575" type="curve" smooth="yes"/>
      <point x="256" y="548"/>
      <point x="239" y="473"/>
      <point x="200" y="473" type="curve" smooth="yes"/>
      <point x="180" y="473"/>
      <point x="168" y="487"/>
      <point x="168" y="520" type="curve" smooth="yes"/>
      <point x="168" y="551"/>
      <point x="184" y="623"/>
      <point x="225" y="623" type="curve" smooth="yes"/>
      <point x="244" y="623"/>
      <point x="256" y="608"/>
    </contour>
    <contour>
      <point x="296" y="156" type="curve" smooth="yes"/>
      <point x="296" y="104"/>
      <point x="273" y="73"/>
      <point x="254" y="73" type="curve" smooth="yes"/>
      <point x="241" y="73"/>
      <point x="231" y="84"/>
      <point x="231" y="110" type="curve" smooth="yes"/>
      <point x="231" y="162"/>
      <point x="254" y="193"/>
      <point x="273" y="193" type="curve" smooth="yes"/>
      <point x="286" y="193"/>
      <point x="296" y="182"/>
    </contour>
    <contour>
      <point x="550" y="156" type="curve" smooth="yes"/>
      <point x="550" y="104"/>
      <point x="527" y="73"/>
      <point x="508" y="73" type="curve" smooth="yes"/>
      <point x="495" y="73"/>
      <point x="485" y="84"/>
      <point x="485" y="110" type="curve" smooth="yes"/>
      <point x="485" y="162"/>
      <point x="508" y="193"/>
      <point x="527" y="193" type="curve" smooth="yes"/>
      <point x="540" y="193"/>
      <point x="550" y="182"/>
    </contour>
    <contour>
      <point x="78" y="521" type="curve" smooth="yes"/>
      <point x="78" y="434"/>
      <point x="130" y="391"/>
      <point x="196" y="391" type="curve" smooth="yes"/>
      <point x="307" y="391"/>
      <point x="345" y="507"/>
      <point x="345" y="576" type="curve" smooth="yes"/>
      <point x="345" y="662"/>
      <point x="293" y="705"/>
      <point x="230" y="705" type="curve" smooth="yes"/>
      <point x="122" y="705"/>
      <point x="78" y="601"/>
    </contour>
    <contour>
      <point x="145" y="112" type="curve" smooth="yes"/>
      <point x="145" y="33"/>
      <point x="190" y="-5"/>
      <point x="249" y="-5" type="curve" smooth="yes"/>
      <point x="342" y="-5"/>
      <point x="382" y="92"/>
      <point x="382" y="154" type="curve" smooth="yes"/>
      <point x="382" y="233"/>
      <point x="338" y="271"/>
      <point x="279" y="271" type="curve" smooth="yes"/>
      <point x="186" y="271"/>
      <point x="145" y="174"/>
    </contour>
    <contour>
      <point x="399" y="112" type="curve" smooth="yes"/>
      <point x="399" y="33"/>
      <point x="444" y="-5"/>
      <point x="503" y="-5" type="curve" smooth="yes"/>
      <point x="596" y="-5"/>
      <point x="636" y="92"/>
      <point x="636" y="154" type="curve" smooth="yes"/>
      <point x="636" y="233"/>
      <point x="592" y="271"/>
      <point x="533" y="271" type="curve" smooth="yes"/>
      <point x="440" y="271"/>
      <point x="399" y="174"/>
    </contour>
    <contour>
      <point x="707" y="631" type="line"/>
      <point x="51" y="268" type="line"/>
      <point x="35" y="179" type="line"/>
      <point x="691" y="542" type="line"/>
    </contour>
  </outline>
</glyph>
<glyph name="minute" format="2">
  <advance width="350"/>
  <unicode hex="2032"/>
  <outline>
    <contour>
      <point x="200" y="700" type="line"/>
      <point x="87" y="363" type="line"/>
      <point x="197" y="363" type="line"/>
      <point x="362" y="700" type="line"/>
    </contour>
  </outline>
</glyph>
<glyph name="second" format="2">
  <advance width="350"/>
  <unicode hex="2033"/>
  <outline>
    <contour>
      <point x="136" y="700" type="line"/>
      <point x="21" y="363" type="line"/>
      <point x="99" y="363" type="line"/>
      <point x="266" y="700" type="line"/>
    </contour>
    <contour>
      <point x="299" y="700" type="line"/>
      <point x="184" y="363" type="line"/>
      <point x="262" y="363" type="line"/>
      <point x="429" y="700" type="line"/>
    </contour>
  </outline>
</glyph>
<glyph name="guilsinglleft" format="2">
  <advance width="350"/>
  <unicode hex="2039"/>
  <outline>
    <contour>
      <point x="356" y="450" type="line"/>
      <point x="211" y="450" type="line"/>
      <point x="41" y="276" type="line"/>
      <point x="33" y="234" type="line"/>
      <point x="143" y="60" type="line"/>
      <point x="274" y="60" type="line"/>
      <point x="135" y="280" type="line"/>
      <point x="141" y="230" type="line"/>
    </contour>
  </outline>
</glyph>
<glyph name="fraction" format="2">
  <advance width="350"/>
  <unicode hex="2044"/>
  <outline>
    <contour>
      <point x="-47" y="0" type="line"/>
      <point x="66" y="0" type="line"/>
      <point x="682" y="700" type="line"/>
      <point x="569" y="700" type="line"/>
    </contour>
  </outline>
</glyph>
<glyph name="newsheqel" format="2">
  <advance width="680"/>
  <unicode hex="20AA"/>
  <outline>
    <contour>
      <point x="372" y="700" type="line" smooth="yes"/>
      <point x="487" y="700"/>
      <point x="535" y="640"/>
      <point x="515" y="525" type="curve" smooth="yes"/>
      <point x="449" y="149" type="line"/>
      <point x="342" y="149" type="line"/>
      <point x="409" y="528" type="line" smooth="yes"/>
      <point x="416" y="568"/>
      <point x="400" y="595"/>
      <point x="356" y="595" type="curve" smooth="yes"/>
      <point x="234" y="595" type="line"/>
      <point x="129" y="0" type="line"/>
      <point x="21" y="0" type="line"/>
      <point x="144" y="700" type="line"/>
    </contour>
    <contour>
      <point x="343" y="0" type="line" smooth="yes"/>
      <point x="228" y="0"/>
      <point x="180" y="60"/>
      <point x="200" y="175" type="curve" smooth="yes"/>
      <point x="266" y="551" type="line"/>
      <point x="373" y="551" type="line"/>
      <point x="306" y="172" type="line" smooth="yes"/>
      <point x="299" y="132"/>
      <point x="315" y="105"/>
      <point x="359" y="105" type="curve" smooth="yes"/>
      <point x="481" y="105" type="line"/>
      <point x="586" y="700" type="line"/>
      <point x="695" y="700" type="line"/>
      <point x="572" y="0" type="line"/>
    </contour>
  </outline>
</glyph>
<glyph name="cedi" format="2">
  <advance width="600"/>
  <unicode hex="20B5"/>
  <outline>
    <contour>
      <point x="598" y="480" type="line"/>
      <point x="596" y="615"/>
      <point x="536" y="712"/>
      <point x="387" y="712" type="curve" smooth="yes"/>
      <point x="149" y="712"/>
      <point x="53" y="467"/>
      <point x="53" y="253" type="curve" smooth="yes"/>
      <point x="53" y="90"/>
      <point x="131" y="-12"/>
      <point x="280" y="-12" type="curve" smooth="yes"/>
      <point x="409" y="-12"/>
      <point x="511" y="74"/>
      <point x="554" y="201" type="curve"/>
      <point x="427" y="233" type="line"/>
      <point x="395" y="145"/>
      <point x="355" y="107"/>
      <point x="297" y="107" type="curve" smooth="yes"/>
      <point x="235" y="107"/>
      <point x="193" y="150"/>
      <point x="193" y="254" type="curve" smooth="yes"/>
      <point x="193" y="407"/>
      <point x="247" y="591"/>
      <point x="375" y="591" type="curve" smooth="yes"/>
      <point x="433" y="591"/>
      <point x="470" y="557"/>
      <point x="470" y="463" type="curve"/>
    </contour>
    <contour>
      <point x="200" y="-112" type="line"/>
      <point x="294" y="-112" type="line"/>
      <point x="454" y="797" type="line"/>
      <point x="360" y="797" type="line"/>
    </contour>
  </outline>
</glyph>
<glyph name="trademark" format="2">
  <advance width="680"/>
  <unicode hex="2122"/>
  <outline>
    <contour>
      <point x="189" y="678" type="line"/>
      <point x="273" y="678" type="line"/>
      <point x="217" y="357" type="line"/>
      <point x="133" y="357" type="line"/>
    </contour>
    <contour>
      <point x="100" y="622" type="line"/>
      <point x="113" y="700" type="line"/>
      <point x="357" y="700" type="line"/>
      <point x="344" y="622" type="line"/>
    </contour>
    <contour>
      <point x="450" y="677" type="line"/>
      <point x="490" y="427" type="line"/>
      <point x="515" y="427" type="line"/>
      <point x="643" y="677" type="line"/>
      <point x="624" y="677" type="line"/>
      <point x="568" y="357" type="line"/>
      <point x="646" y="357" type="line"/>
      <point x="706" y="700" type="line"/>
      <point x="593" y="700" type="line"/>
      <point x="513" y="549" type="line"/>
      <point x="534" y="549" type="line"/>
      <point x="506" y="700" type="line"/>
      <point x="395" y="700" type="line"/>
      <point x="335" y="357" type="line"/>
      <point x="413" y="357" type="line"/>
      <point x="469" y="677" type="line"/>
    </contour>
  </outline>
</glyph>
<glyph name="onetenth" format="2">
  <advance width="680"/>
  <unicode hex="2152"/>
  <outline>
    <contour>
      <point x="284" y="0" type="line"/>
      <point x="360" y="0" type="line"/>
      <point x="410" y="274" type="line"/>
      <point x="339" y="274" type="line"/>
      <point x="331" y="226"/>
      <point x="314" y="211"/>
      <point x="262" y="211" type="curve"/>
      <point x="252" y="153" type="line"/>
      <point x="354" y="153" type="line"/>
      <point x="320" y="205" type="line"/>
    </contour>
    <contour>
      <point x="501" y="-6" type="curve" smooth="yes"/>
      <point x="591" y="-6"/>
      <point x="640" y="81"/>
      <point x="640" y="167" type="curve" smooth="yes"/>
      <point x="640" y="236"/>
      <point x="601" y="276"/>
      <point x="541" y="276" type="curve" smooth="yes"/>
      <point x="451" y="276"/>
      <point x="402" y="189"/>
      <point x="402" y="102" type="curve" smooth="yes"/>
      <point x="402" y="34"/>
      <point x="440" y="-6"/>
    </contour>
    <contour>
      <point x="130" y="386" type="line"/>
      <point x="218" y="386" type="line"/>
      <point x="275" y="700" type="line"/>
      <point x="193" y="700" type="line"/>
      <point x="184" y="646"/>
      <point x="165" y="629"/>
      <point x="105" y="629" type="curve"/>
      <point x="93" y="561" type="line"/>
      <point x="211" y="561" type="line"/>
      <point x="172" y="621" type="line"/>
    </contour>
    <contour>
      <point x="-3" y="0" type="line"/>
      <point x="86" y="0" type="line"/>
      <point x="550" y="700" type="line"/>
      <point x="461" y="700" type="line"/>
    </contour>
    <contour>
      <point x="508" y="58" type="curve" smooth="yes"/>
      <point x="490" y="58"/>
      <point x="480" y="73"/>
      <point x="480" y="105" type="curve" smooth="yes"/>
      <point x="480" y="150"/>
      <point x="496" y="212"/>
      <point x="534" y="212" type="curve" smooth="yes"/>
      <point x="552" y="212"/>
      <point x="562" y="197"/>
      <point x="562" y="165" type="curve" smooth="yes"/>
      <point x="562" y="120"/>
      <point x="546" y="58"/>
    </contour>
  </outline>
</glyph>
<glyph name="arrowup" format="2">
  <advance width="680"/>
  <unicode hex="2191"/>
  <outline>
    <contour>
      <point x="141" y="263" type="line"/>
      <point x="340" y="463" type="line"/>
      <point x="539" y="263" type="line"/>
      <point x="629" y="353" type="line"/>
      <point x="340" y="641" type="line"/>
      <point x="51" y="353" type="line"/>
    </contour>
    <contour>
      <point x="276" y="61" type="line"/>
      <point x="404" y="61" type="line"/>
      <point x="404" y="506" type="line"/>
      <point x="276" y="506" type="line"/>
    </contour>
  </outline>
</glyph>
<glyph name="circlewhite" format="2">
  <advance width="680"/>
  <unicode hex="25CB"/>
  <outline>
    <contour>
      <point x="583" y="382" type="curve" smooth="yes"/>
      <point x="583" y="237"/>
      <point x="477" y="118"/>
      <point x="331" y="118" type="curve" smooth="yes"/>
      <point x="212" y="118"/>
      <point x="133" y="200"/>
      <point x="133" y="320" type="curve" smooth="yes"/>
      <point x="133" y="473"/>
      <point x="246" y="583"/>
      <point x="385" y="583" type="curve" smooth="yes"/>
      <point x="504" y="583"/>
      <point x="583" y="502"/>
    </contour>
    <contour>
      <point x="43" y="313" type="curve" smooth="yes"/>
      <point x="43" y="152"/>
      <point x="159" y="34"/>
      <point x="324" y="34" type="curve" smooth="yes"/>
      <point x="526" y="34"/>
      <point x="673" y="197"/>
      <point x="673" y="388" type="curve" smooth="yes"/>
      <point x="673" y="550"/>
      <point x="557" y="666"/>
      <point x="392" y="666" type="curve" smooth="yes"/>
      <point x="190" y="666"/>
      <point x="43" y="504"/>
    </contour>
  </outline>
</glyph>
<glyph name="circleblack" format="2">
  <advance width="680"/>
  <unicode hex="25CF"/>
  <outline>
    <contour>
      <point x="43" y="313" type="curve" smooth="yes"/>
      <point x="43" y="152"/>
      <point x="159" y="34"/>
      <point x="324" y="34" type="curve" smooth="yes"/>
      <point x="526" y="34"/>
      <point x="673" y="197"/>
      <point x="673" y="388" type="curve" smooth="yes"/>
      <point x="673" y="550"/>
      <point x="557" y="666"/>
      <point x="392" y="666" type="curve" smooth="yes"/>
      <point x="190" y="666"/>
      <point x="43" y="504"/>
    </contour>
  </outline>
</glyph>
<glyph name="onesanscircled" format="2">
  <advance width="680"/>
  <unicode hex="2780"/>
  <outline>
    <contour>
      <point x="359" y="500" type="line"/>
      <point x="350" y="448"/>
      <point x="332" y="432"/>
      <point x="275" y="432" type="curve"/>
      <point x="263" y="368" type="line"/>
      <point x="328" y="368" type="line"/>
      <point x="298" y="200" type="line"/>
      <point x="382" y="200" type="line"/>
      <point x="436" y="500" type="line"/>
    </contour>
    <component base="circlewhite" identifier="7D82C654"/>
  </outline>
</glyph>
<glyph name="twosanscircled" format="2">
  <advance width="680"/>
  <unicode hex="2781"/>
  <outline>
    <contour>
      <point x="232" y="267" type="curve"/>
      <point x="221" y="199" type="line"/>
      <point x="434" y="199" type="line"/>
      <point x="446" y="269" type="line"/>
      <point x="349" y="269" type="line"/>
      <point x="421" y="316"/>
      <point x="472" y="355"/>
      <point x="472" y="416" type="curve" smooth="yes"/>
      <point x="472" y="461"/>
      <point x="444" y="504"/>
      <point x="371" y="504" type="curve" smooth="yes"/>
      <point x="288" y="504"/>
      <point x="250" y="454"/>
      <point x="250" y="405" type="curve" smooth="yes"/>
      <point x="250" y="395"/>
      <point x="252" y="386"/>
      <point x="256" y="376" type="curve"/>
      <point x="336" y="383" type="line"/>
      <point x="333" y="389"/>
      <point x="331" y="396"/>
      <point x="331" y="403" type="curve" smooth="yes"/>
      <point x="331" y="423"/>
      <point x="343" y="437"/>
      <point x="362" y="437" type="curve" smooth="yes"/>
      <point x="376" y="437"/>
      <point x="385" y="431"/>
      <point x="385" y="413" type="curve" smooth="yes"/>
      <point x="385" y="374"/>
      <point x="343" y="349"/>
    </contour>
    <component base="circlewhite" identifier="444086C5"/>
  </outline>
</glyph>
<glyph name="threesanscircled" format="2">
  <advance width="680"/>
  <unicode hex="2782"/>
  <outline>
    <contour>
      <point x="231" y="306" type="line"/>
      <point x="229" y="297"/>
      <point x="227" y="288"/>
      <point x="227" y="280" type="curve" smooth="yes"/>
      <point x="227" y="224"/>
      <point x="275" y="195"/>
      <point x="338" y="195" type="curve" smooth="yes"/>
      <point x="419" y="195"/>
      <point x="464" y="241"/>
      <point x="464" y="297" type="curve" smooth="yes"/>
      <point x="464" y="326"/>
      <point x="446" y="345"/>
      <point x="420" y="353" type="curve"/>
      <point x="448" y="363"/>
      <point x="479" y="386"/>
      <point x="479" y="429" type="curve" smooth="yes"/>
      <point x="479" y="468"/>
      <point x="449" y="504"/>
      <point x="375" y="504" type="curve" smooth="yes"/>
      <point x="308" y="504"/>
      <point x="259" y="468"/>
      <point x="251" y="397" type="curve"/>
      <point x="334" y="403" type="line"/>
      <point x="335" y="423"/>
      <point x="347" y="439"/>
      <point x="368" y="439" type="curve" smooth="yes"/>
      <point x="378" y="439"/>
      <point x="392" y="432"/>
      <point x="392" y="414" type="curve" smooth="yes"/>
      <point x="392" y="396"/>
      <point x="380" y="384"/>
      <point x="363" y="384" type="curve" smooth="yes"/>
      <point x="345" y="384" type="line"/>
      <point x="335" y="324" type="line"/>
      <point x="345" y="324" type="line" smooth="yes"/>
      <point x="368" y="324"/>
      <point x="378" y="315"/>
      <point x="378" y="297" type="curve" smooth="yes"/>
      <point x="378" y="278"/>
      <point x="368" y="260"/>
      <point x="342" y="260" type="curve" smooth="yes"/>
      <point x="324" y="260"/>
      <point x="312" y="270"/>
      <point x="312" y="288" type="curve" smooth="yes"/>
      <point x="312" y="291"/>
      <point x="313" y="296"/>
      <point x="314" y="301" type="curve"/>
    </contour>
    <component base="circlewhite" identifier="39872881"/>
  </outline>
</glyph>
<glyph name="foursanscircled" format="2">
  <advance width="680"/>
  <unicode hex="2783"/>
  <outline>
    <contour>
      <point x="447" y="499" type="line"/>
      <point x="339" y="499" type="line"/>
      <point x="217" y="322" type="line"/>
      <point x="205" y="252" type="line"/>
      <point x="327" y="252" type="line"/>
      <point x="318" y="199" type="line"/>
      <point x="394" y="199" type="line"/>
      <point x="403" y="252" type="line"/>
      <point x="447" y="252" type="line"/>
      <point x="458" y="319" type="line"/>
      <point x="415" y="319" type="line"/>
    </contour>
    <contour>
      <point x="286" y="319" type="line"/>
      <point x="357" y="423" type="line"/>
      <point x="339" y="319" type="line"/>
    </contour>
    <component base="circlewhite" identifier="2EE61529"/>
  </outline>
</glyph>
<glyph name="fivesanscircled" format="2">
  <advance width="680"/>
  <unicode hex="2784"/>
  <outline>
    <contour>
      <point x="462" y="322" type="curve" smooth="yes"/>
      <point x="462" y="369"/>
      <point x="437" y="403"/>
      <point x="389" y="403" type="curve" smooth="yes"/>
      <point x="367" y="403"/>
      <point x="350" y="396"/>
      <point x="335" y="387" type="curve"/>
      <point x="348" y="429" type="line"/>
      <point x="473" y="429" type="line"/>
      <point x="485" y="499" type="line"/>
      <point x="291" y="499" type="line"/>
      <point x="248" y="332" type="line"/>
      <point x="327" y="324" type="line"/>
      <point x="333" y="333"/>
      <point x="340" y="341"/>
      <point x="354" y="341" type="curve" smooth="yes"/>
      <point x="369" y="341"/>
      <point x="375" y="332"/>
      <point x="375" y="313" type="curve" smooth="yes"/>
      <point x="375" y="289"/>
      <point x="364" y="260"/>
      <point x="343" y="260" type="curve" smooth="yes"/>
      <point x="326" y="260"/>
      <point x="316" y="274"/>
      <point x="319" y="296" type="curve"/>
      <point x="233" y="306" type="line"/>
      <point x="232" y="301"/>
      <point x="232" y="294"/>
      <point x="232" y="288" type="curve" smooth="yes"/>
      <point x="232" y="226"/>
      <point x="276" y="195"/>
      <point x="342" y="195" type="curve" smooth="yes"/>
      <point x="430" y="195"/>
      <point x="462" y="258"/>
    </contour>
    <component base="circlewhite" identifier="0B8792BF"/>
  </outline>
</glyph>
<glyph name="sixsanscircled" format="2">
  <advance width="680"/>
  <unicode hex="2785"/>
  <outline>
    <contour>
      <point x="335" y="195" type="curve" smooth="yes"/>
      <point x="425" y="195"/>
      <point x="468" y="260"/>
      <point x="468" y="319" type="curve" smooth="yes"/>
      <point x="468" y="369"/>
      <point x="438" y="398"/>
      <point x="386" y="398" type="curve" smooth="yes"/>
      <point x="362" y="398"/>
      <point x="341" y="391"/>
      <point x="324" y="378" type="curve"/>
      <point x="336" y="419"/>
      <point x="359" y="436"/>
      <point x="378" y="436" type="curve" smooth="yes"/>
      <point x="392" y="436"/>
      <point x="400" y="428"/>
      <point x="397" y="414" type="curve"/>
      <point x="479" y="405" type="line"/>
      <point x="480" y="410"/>
      <point x="481" y="416"/>
      <point x="481" y="420" type="curve" smooth="yes"/>
      <point x="481" y="472"/>
      <point x="448" y="503"/>
      <point x="387" y="503" type="curve" smooth="yes"/>
      <point x="307" y="503"/>
      <point x="249" y="441"/>
      <point x="231" y="345" type="curve" smooth="yes"/>
      <point x="229" y="329"/>
      <point x="227" y="314"/>
      <point x="227" y="300" type="curve" smooth="yes"/>
      <point x="227" y="234"/>
      <point x="264" y="195"/>
    </contour>
    <contour>
      <point x="311" y="290" type="curve" smooth="yes"/>
      <point x="311" y="313"/>
      <point x="325" y="341"/>
      <point x="353" y="341" type="curve" smooth="yes"/>
      <point x="371" y="341"/>
      <point x="382" y="329"/>
      <point x="382" y="308" type="curve" smooth="yes"/>
      <point x="382" y="287"/>
      <point x="368" y="257"/>
      <point x="340" y="257" type="curve" smooth="yes"/>
      <point x="321" y="257"/>
      <point x="311" y="270"/>
    </contour>
    <component base="circlewhite" identifier="B0CA6A01"/>
  </outline>
</glyph>
<glyph name="sevensanscircled" format="2">
  <advance width="680"/>
  <unicode hex="2786"/>
  <outline>
    <contour>
      <point x="257" y="499" type="line"/>
      <point x="235" y="376" type="line"/>
      <point x="312" y="376" type="line"/>
      <point x="322" y="431" type="line"/>
      <point x="391" y="431" type="line"/>
      <point x="335" y="358"/>
      <point x="287" y="289"/>
      <point x="272" y="199" type="curve"/>
      <point x="362" y="199" type="line"/>
      <point x="381" y="299"/>
      <point x="428" y="369"/>
      <point x="487" y="449" type="curve"/>
      <point x="496" y="499" type="line"/>
    </contour>
    <component base="circlewhite" identifier="B5B10C97"/>
  </outline>
</glyph>
<glyph name="eightsanscircled" format="2">
  <advance width="680"/>
  <unicode hex="2787"/>
  <outline>
    <contour>
      <point x="472" y="295" type="curve" smooth="yes"/>
      <point x="472" y="327"/>
      <point x="453" y="347"/>
      <point x="426" y="357" type="curve"/>
      <point x="458" y="366"/>
      <point x="485" y="391"/>
      <point x="485" y="430" type="curve" smooth="yes"/>
      <point x="485" y="472"/>
      <point x="448" y="504"/>
      <point x="377" y="504" type="curve" smooth="yes"/>
      <point x="297" y="504"/>
      <point x="257" y="461"/>
      <point x="257" y="414" type="curve" smooth="yes"/>
      <point x="257" y="386"/>
      <point x="271" y="370"/>
      <point x="293" y="361" type="curve"/>
      <point x="254" y="351"/>
      <point x="223" y="323"/>
      <point x="223" y="278" type="curve" smooth="yes"/>
      <point x="223" y="228"/>
      <point x="264" y="195"/>
      <point x="340" y="195" type="curve" smooth="yes"/>
      <point x="430" y="195"/>
      <point x="472" y="248"/>
    </contour>
    <contour>
      <point x="337" y="414" type="curve" smooth="yes"/>
      <point x="337" y="429"/>
      <point x="349" y="444"/>
      <point x="373" y="444" type="curve" smooth="yes"/>
      <point x="392" y="444"/>
      <point x="403" y="433"/>
      <point x="403" y="419" type="curve" smooth="yes"/>
      <point x="403" y="404"/>
      <point x="390" y="387"/>
      <point x="367" y="387" type="curve" smooth="yes"/>
      <point x="349" y="387"/>
      <point x="337" y="399"/>
    </contour>
    <contour>
      <point x="389" y="297" type="curve" smooth="yes"/>
      <point x="389" y="278"/>
      <point x="374" y="254"/>
      <point x="345" y="254" type="curve" smooth="yes"/>
      <point x="322" y="254"/>
      <point x="307" y="268"/>
      <point x="307" y="288" type="curve" smooth="yes"/>
      <point x="307" y="307"/>
      <point x="322" y="329"/>
      <point x="351" y="329" type="curve" smooth="yes"/>
      <point x="374" y="329"/>
      <point x="389" y="316"/>
    </contour>
    <component base="circlewhite" identifier="39A64CC1"/>
  </outline>
</glyph>
<glyph name="ninesanscircled" format="2">
  <advance width="680"/>
  <unicode hex="2788"/>
  <outline>
    <contour>
      <point x="378" y="504" type="curve" smooth="yes"/>
      <point x="286" y="504"/>
      <point x="247" y="440"/>
      <point x="247" y="381" type="curve" smooth="yes"/>
      <point x="247" y="329"/>
      <point x="280" y="303"/>
      <point x="330" y="303" type="curve" smooth="yes"/>
      <point x="355" y="303"/>
      <point x="376" y="310"/>
      <point x="391" y="323" type="curve"/>
      <point x="382" y="287"/>
      <point x="367" y="256"/>
      <point x="342" y="256" type="curve" smooth="yes"/>
      <point x="324" y="256"/>
      <point x="316" y="269"/>
      <point x="320" y="288" type="curve"/>
      <point x="233" y="300" type="line"/>
      <point x="232" y="294"/>
      <point x="232" y="292"/>
      <point x="232" y="287" type="curve" smooth="yes"/>
      <point x="232" y="227"/>
      <point x="274" y="195"/>
      <point x="336" y="195" type="curve" smooth="yes"/>
      <point x="421" y="195"/>
      <point x="464" y="251"/>
      <point x="482" y="351" type="curve" smooth="yes"/>
      <point x="485" y="371"/>
      <point x="487" y="387"/>
      <point x="487" y="402" type="curve" smooth="yes"/>
      <point x="487" y="456"/>
      <point x="458" y="504"/>
    </contour>
    <contour>
      <point x="362" y="359" type="curve" smooth="yes"/>
      <point x="344" y="359"/>
      <point x="333" y="370"/>
      <point x="333" y="392" type="curve" smooth="yes"/>
      <point x="333" y="418"/>
      <point x="349" y="441"/>
      <point x="374" y="441" type="curve" smooth="yes"/>
      <point x="392" y="441"/>
      <point x="403" y="429"/>
      <point x="403" y="407" type="curve" smooth="yes"/>
      <point x="403" y="381"/>
      <point x="386" y="359"/>
    </contour>
    <component base="circlewhite" identifier="9B0DACAD"/>
  </outline>
</glyph>
<glyph name="onesansnegativecircled" format="2">
  <advance width="680"/>
  <unicode hex="278A"/>
  <outline>
    <contour>
      <point x="359" y="500" type="curve"/>
      <point x="436" y="500" type="line"/>
      <point x="382" y="200" type="line"/>
      <point x="298" y="200" type="line"/>
      <point x="328" y="368" type="line"/>
      <point x="263" y="368" type="line"/>
      <point x="275" y="432" type="line"/>
      <point x="332" y="432"/>
      <point x="350" y="448"/>
    </contour>
    <component base="circleblack" identifier="DD19BC65"/>
  </outline>
</glyph>
<glyph name="twosansnegativecircled" format="2">
  <advance width="680"/>
  <unicode hex="278B"/>
  <outline>
    <contour>
      <point x="237" y="267" type="line"/>
      <point x="348" y="349"/>
      <point x="390" y="374"/>
      <point x="390" y="413" type="curve" smooth="yes"/>
      <point x="390" y="431"/>
      <point x="380" y="437"/>
      <point x="366" y="437" type="curve" smooth="yes"/>
      <point x="348" y="437"/>
      <point x="336" y="423"/>
      <point x="336" y="403" type="curve" smooth="yes"/>
      <point x="336" y="396"/>
      <point x="338" y="389"/>
      <point x="340" y="383" type="curve"/>
      <point x="260" y="376" type="line"/>
      <point x="257" y="386"/>
      <point x="255" y="395"/>
      <point x="255" y="405" type="curve" smooth="yes"/>
      <point x="255" y="454"/>
      <point x="293" y="503"/>
      <point x="375" y="503" type="curve" smooth="yes"/>
      <point x="449" y="503"/>
      <point x="476" y="461"/>
      <point x="476" y="416" type="curve" smooth="yes"/>
      <point x="476" y="355"/>
      <point x="425" y="316"/>
      <point x="353" y="269" type="curve"/>
      <point x="450" y="269" type="line"/>
      <point x="438" y="199" type="line"/>
      <point x="225" y="199" type="line"/>
    </contour>
    <component base="circleblack" identifier="9477CF61"/>
  </outline>
</glyph>
<glyph name="foursansnegativecircled" format="2">
  <advance width="680"/>
  <unicode hex="278D"/>
  <outline>
    <contour>
      <point x="452" y="499" type="line"/>
      <point x="420" y="319" type="line"/>
      <point x="464" y="319" type="line"/>
      <point x="452" y="252" type="line"/>
      <point x="408" y="252" type="line"/>
      <point x="399" y="199" type="line"/>
      <point x="323" y="199" type="line"/>
      <point x="332" y="252" type="line"/>
      <point x="210" y="252" type="line"/>
      <point x="222" y="322" type="line"/>
      <point x="344" y="499" type="line"/>
    </contour>
    <contour>
      <point x="291" y="319" type="line"/>
      <point x="344" y="319" type="line"/>
      <point x="363" y="425" type="line"/>
    </contour>
    <component base="circleblack" identifier="C7949ED8"/>
  </outline>
</glyph>
<glyph name="fivesansnegativecircled" format="2">
  <advance width="680"/>
  <unicode hex="278E"/>
  <outline>
    <contour>
      <point x="462" y="322" type="curve" smooth="yes"/>
      <point x="462" y="258"/>
      <point x="430" y="195"/>
      <point x="342" y="195" type="curve" smooth="yes"/>
      <point x="277" y="195"/>
      <point x="232" y="226"/>
      <point x="232" y="287" type="curve" smooth="yes"/>
      <point x="232" y="294"/>
      <point x="232" y="301"/>
      <point x="233" y="306" type="curve"/>
      <point x="319" y="296" type="line"/>
      <point x="315" y="274"/>
      <point x="326" y="260"/>
      <point x="343" y="260" type="curve" smooth="yes"/>
      <point x="364" y="260"/>
      <point x="375" y="289"/>
      <point x="375" y="313" type="curve" smooth="yes"/>
      <point x="375" y="332"/>
      <point x="369" y="341"/>
      <point x="354" y="341" type="curve" smooth="yes"/>
      <point x="340" y="341"/>
      <point x="333" y="332"/>
      <point x="327" y="323" type="curve"/>
      <point x="247" y="332" type="line"/>
      <point x="291" y="499" type="line"/>
      <point x="485" y="499" type="line"/>
      <point x="473" y="429" type="line"/>
      <point x="348" y="429" type="line"/>
      <point x="335" y="387" type="line"/>
      <point x="350" y="396"/>
      <point x="367" y="403"/>
      <point x="389" y="403" type="curve" smooth="yes"/>
      <point x="436" y="403"/>
      <point x="462" y="369"/>
    </contour>
    <component base="circleblack" identifier="6E132D26"/>
  </outline>
</glyph>
<glyph name="sixsansnegativecircled" format="2">
  <advance width="680"/>
  <unicode hex="278F"/>
  <outline>
    <contour>
      <point x="335" y="195" type="curve" smooth="yes"/>
      <point x="264" y="195"/>
      <point x="227" y="234"/>
      <point x="227" y="300" type="curve" smooth="yes"/>
      <point x="227" y="314"/>
      <point x="229" y="329"/>
      <point x="231" y="345" type="curve" smooth="yes"/>
      <point x="248" y="441"/>
      <point x="307" y="503"/>
      <point x="387" y="503" type="curve" smooth="yes"/>
      <point x="448" y="503"/>
      <point x="481" y="472"/>
      <point x="481" y="420" type="curve" smooth="yes"/>
      <point x="481" y="416"/>
      <point x="480" y="410"/>
      <point x="479" y="405" type="curve"/>
      <point x="397" y="414" type="line"/>
      <point x="400" y="428"/>
      <point x="392" y="436"/>
      <point x="378" y="436" type="curve" smooth="yes"/>
      <point x="359" y="436"/>
      <point x="336" y="419"/>
      <point x="324" y="378" type="curve"/>
      <point x="341" y="391"/>
      <point x="362" y="398"/>
      <point x="386" y="398" type="curve" smooth="yes"/>
      <point x="437" y="398"/>
      <point x="468" y="369"/>
      <point x="468" y="319" type="curve" smooth="yes"/>
      <point x="468" y="260"/>
      <point x="425" y="195"/>
    </contour>
    <contour>
      <point x="311" y="290" type="curve" smooth="yes"/>
      <point x="311" y="269"/>
      <point x="321" y="257"/>
      <point x="340" y="257" type="curve" smooth="yes"/>
      <point x="368" y="257"/>
      <point x="382" y="287"/>
      <point x="382" y="308" type="curve" smooth="yes"/>
      <point x="382" y="329"/>
      <point x="371" y="341"/>
      <point x="353" y="341" type="curve" smooth="yes"/>
      <point x="325" y="341"/>
      <point x="311" y="313"/>
    </contour>
    <component base="circleblack" identifier="654D3F6A"/>
  </outline>
</glyph>
<glyph name="sevensansnegativecircled" format="2">
  <advance width="680"/>
  <unicode hex="2790"/>
  <outline>
    <contour>
      <point x="257" y="499" type="line"/>
      <point x="496" y="499" type="line"/>
      <point x="487" y="449" type="line"/>
      <point x="429" y="368"/>
      <point x="381" y="299"/>
      <point x="362" y="199" type="curve"/>
      <point x="272" y="199" type="line"/>
      <point x="287" y="289"/>
      <point x="335" y="358"/>
      <point x="391" y="431" type="curve"/>
      <point x="322" y="431" type="line"/>
      <point x="312" y="376" type="line"/>
      <point x="235" y="376" type="line"/>
    </contour>
    <component base="circleblack" identifier="A68D459C"/>
  </outline>
</glyph>
<glyph name="eightsansnegativecircled" format="2">
  <advance width="680"/>
  <unicode hex="2791"/>
  <outline>
    <contour>
      <point x="472" y="295" type="curve" smooth="yes"/>
      <point x="472" y="248"/>
      <point x="430" y="195"/>
      <point x="339" y="195" type="curve" smooth="yes"/>
      <point x="264" y="195"/>
      <point x="222" y="228"/>
      <point x="222" y="278" type="curve" smooth="yes"/>
      <point x="222" y="323"/>
      <point x="254" y="351"/>
      <point x="293" y="361" type="curve"/>
      <point x="271" y="370"/>
      <point x="257" y="386"/>
      <point x="257" y="414" type="curve" smooth="yes"/>
      <point x="257" y="461"/>
      <point x="297" y="503"/>
      <point x="377" y="503" type="curve" smooth="yes"/>
      <point x="447" y="503"/>
      <point x="485" y="472"/>
      <point x="485" y="430" type="curve" smooth="yes"/>
      <point x="485" y="391"/>
      <point x="459" y="366"/>
      <point x="426" y="357" type="curve"/>
      <point x="453" y="347"/>
      <point x="472" y="327"/>
    </contour>
    <contour>
      <point x="337" y="413" type="curve" smooth="yes"/>
      <point x="337" y="399"/>
      <point x="348" y="387"/>
      <point x="367" y="387" type="curve" smooth="yes"/>
      <point x="390" y="387"/>
      <point x="403" y="404"/>
      <point x="403" y="419" type="curve" smooth="yes"/>
      <point x="403" y="433"/>
      <point x="392" y="444"/>
      <point x="373" y="444" type="curve" smooth="yes"/>
      <point x="349" y="444"/>
      <point x="337" y="429"/>
    </contour>
    <contour>
      <point x="389" y="297" type="curve" smooth="yes"/>
      <point x="389" y="316"/>
      <point x="374" y="329"/>
      <point x="351" y="329" type="curve" smooth="yes"/>
      <point x="322" y="329"/>
      <point x="307" y="307"/>
      <point x="307" y="287" type="curve" smooth="yes"/>
      <point x="307" y="268"/>
      <point x="322" y="254"/>
      <point x="345" y="254" type="curve" smooth="yes"/>
      <point x="374" y="254"/>
      <point x="389" y="278"/>
    </contour>
    <component base="circleblack" identifier="CB7F1AE7"/>
  </outline>
</glyph>
<glyph name="ninesansnegativecircled" format="2">
  <advance width="680"/>
  <unicode hex="2792"/>
  <outline>
    <contour>
      <point x="378" y="503" type="curve" smooth="yes"/>
      <point x="458" y="503"/>
      <point x="487" y="456"/>
      <point x="487" y="402" type="curve" smooth="yes"/>
      <point x="487" y="387"/>
      <point x="485" y="371"/>
      <point x="482" y="351" type="curve" smooth="yes"/>
      <point x="464" y="251"/>
      <point x="421" y="195"/>
      <point x="336" y="195" type="curve" smooth="yes"/>
      <point x="274" y="195"/>
      <point x="232" y="227"/>
      <point x="232" y="287" type="curve" smooth="yes"/>
      <point x="232" y="292"/>
      <point x="232" y="294"/>
      <point x="233" y="300" type="curve"/>
      <point x="320" y="287" type="line"/>
      <point x="316" y="269"/>
      <point x="324" y="256"/>
      <point x="342" y="256" type="curve" smooth="yes"/>
      <point x="367" y="256"/>
      <point x="383" y="286"/>
      <point x="391" y="323" type="curve"/>
      <point x="376" y="310"/>
      <point x="355" y="303"/>
      <point x="330" y="303" type="curve" smooth="yes"/>
      <point x="280" y="303"/>
      <point x="247" y="329"/>
      <point x="247" y="381" type="curve" smooth="yes"/>
      <point x="247" y="440"/>
      <point x="285" y="503"/>
    </contour>
    <contour>
      <point x="333" y="392" type="curve" smooth="yes"/>
      <point x="333" y="370"/>
      <point x="344" y="359"/>
      <point x="362" y="359" type="curve" smooth="yes"/>
      <point x="386" y="359"/>
      <point x="403" y="381"/>
      <point x="403" y="407" type="curve" smooth="yes"/>
      <point x="403" y="429"/>
      <point x="392" y="441"/>
      <point x="374" y="441" type="curve" smooth="yes"/>
      <point x="349" y="441"/>
      <point x="333" y="418"/>
    </contour>
    <component base="circleblack" identifier="E093A77E"/>
  </outline>
</glyph>
<glyph name="tensansnegativecircled" format="2">
  <advance width="680"/>
  <unicode hex="2793"/>
  <outline>
    <contour>
      <point x="512" y="405" type="curve" smooth="yes"/>
      <point x="512" y="342"/>
      <point x="490" y="196"/>
      <point x="401" y="196" type="curve" smooth="yes"/>
      <point x="359" y="196"/>
      <point x="327" y="221"/>
      <point x="327" y="295" type="curve" smooth="yes"/>
      <point x="327" y="350"/>
      <point x="346" y="504"/>
      <point x="439" y="504" type="curve" smooth="yes"/>
      <point x="479" y="504"/>
      <point x="512" y="479"/>
    </contour>
    <contour>
      <point x="273" y="499" type="curve"/>
      <point x="338" y="499" type="line"/>
      <point x="285" y="199" type="line"/>
      <point x="216" y="199" type="line"/>
      <point x="247" y="377" type="line"/>
      <point x="205" y="377" type="line"/>
      <point x="217" y="441" type="line"/>
      <point x="254" y="441"/>
      <point x="265" y="457"/>
    </contour>
    <contour>
      <point x="406" y="264" type="curve" smooth="yes"/>
      <point x="428" y="264"/>
      <point x="445" y="399"/>
      <point x="445" y="416" type="curve" smooth="yes"/>
      <point x="445" y="433"/>
      <point x="440" y="436"/>
      <point x="434" y="436" type="curve" smooth="yes"/>
      <point x="409" y="436"/>
      <point x="394" y="301"/>
      <point x="394" y="284" type="curve" smooth="yes"/>
      <point x="394" y="268"/>
      <point x="399" y="264"/>
    </contour>
    <component base="circleblack" identifier="654F2C3F"/>
  </outline>
</glyph>
<glyph name=".notdef" format="2">
  <advance width="600"/>
  <outline>
    <contour>
      <point x="148" y="620" type="line"/>
      <point x="587" y="620" type="line"/>
      <point x="601" y="700" type="line"/>
      <point x="162" y="700" type="line"/>
    </contour>
    <contour>
      <point x="52" y="80" type="line"/>
      <point x="38" y="0" type="line"/>
      <point x="477" y="0" type="line"/>
      <point x="491" y="80" type="line"/>
    </contour>
    <contour>
      <point x="535" y="700" type="line"/>
      <point x="411" y="0" type="line"/>
      <point x="491" y="0" type="line"/>
      <point x="615" y="700" type="line"/>
    </contour>
    <contour>
      <point x="21" y="0" type="line"/>
      <point x="101" y="0" type="line"/>
      <point x="225" y="700" type="line"/>
      <point x="145" y="700" type="line"/>
    </contour>
    <contour>
      <point x="179" y="278" type="line"/>
      <point x="224" y="224" type="line"/>
      <point x="457" y="422" type="line"/>
      <point x="412" y="476" type="line"/>
    </contour>
    <contour>
      <point x="264" y="472" type="line"/>
      <point x="209" y="426" type="line"/>
      <point x="372" y="228" type="line"/>
      <point x="427" y="274" type="line"/>
    </contour>
  </outline>
</glyph>
<glyph name="aogonek.alt1" format="2">
  <advance width="600"/>
  <outline>
    <contour>
      <point x="335" y="512" type="curve" smooth="yes"/>
      <point x="171" y="512"/>
      <point x="110" y="434"/>
      <point x="92" y="358" type="curve"/>
      <point x="226" y="329" type="line"/>
      <point x="237" y="375"/>
      <point x="261" y="405"/>
      <point x="326" y="405" type="curve" smooth="yes"/>
      <point x="379" y="405"/>
      <point x="406" y="381"/>
      <point x="399" y="340" type="curve" smooth="yes"/>
      <point x="372" y="183" type="line" smooth="yes"/>
      <point x="361" y="119"/>
      <point x="303" y="91"/>
      <point x="246" y="91" type="curve" smooth="yes"/>
      <point x="202" y="91"/>
      <point x="175" y="112"/>
      <point x="175" y="145" type="curve" smooth="yes"/>
      <point x="175" y="182"/>
      <point x="205" y="205"/>
      <point x="257" y="209" type="curve" smooth="yes"/>
      <point x="444" y="223" type="line"/>
      <point x="461" y="317" type="line"/>
      <point x="224" y="300" type="line" smooth="yes"/>
      <point x="115" y="292"/>
      <point x="36" y="234"/>
      <point x="36" y="135" type="curve" smooth="yes"/>
      <point x="36" y="49"/>
      <point x="99" y="-12"/>
      <point x="203" y="-12" type="curve" smooth="yes"/>
      <point x="288" y="-12"/>
      <point x="355" y="22"/>
      <point x="395" y="90" type="curve"/>
      <point x="370" y="100" type="line"/>
      <point x="363" y="65"/>
      <point x="359" y="32"/>
      <point x="358" y="0" type="curve"/>
      <point x="486" y="0" type="line"/>
      <point x="486" y="36"/>
      <point x="490" y="67"/>
      <point x="498" y="114" type="curve" smooth="yes"/>
      <point x="536" y="334" type="line" smooth="yes"/>
      <point x="558" y="462"/>
      <point x="464" y="512"/>
    </contour>
    <component base="ogonek" xOffset="159"/>
  </outline>
</glyph>
<glyph name="bracketleft.uc" format="2">
  <advance width="600"/>
  <outline>
    <contour>
      <point x="149" y="-83" type="line"/>
      <point x="424" y="-83" type="line"/>
      <point x="443" y="24" type="line"/>
      <point x="313" y="24" type="line"/>
      <point x="421" y="638" type="line"/>
      <point x="551" y="638" type="line"/>
      <point x="570" y="745" type="line"/>
      <point x="295" y="745" type="line"/>
    </contour>
  </outline>
</glyph>
<glyph name="brokenbar.uc" format="2">
  <advance width="350"/>
  <outline>
    <contour>
      <point x="191" y="745" type="line"/>
      <point x="127" y="382" type="line"/>
      <point x="270" y="382" type="line"/>
      <point x="334" y="745" type="line"/>
    </contour>
    <contour>
      <point x="109" y="280" type="line"/>
      <point x="45" y="-83" type="line"/>
      <point x="188" y="-83" type="line"/>
      <point x="252" y="280" type="line"/>
    </contour>
  </outline>
</glyph>
<glyph name="bullet.large" format="2">
  <advance width="600"/>
  <outline>
    <contour>
      <point x="292" y="34" type="curve" smooth="yes"/>
      <point x="454" y="34"/>
      <point x="587" y="170"/>
      <point x="587" y="328" type="curve" smooth="yes"/>
      <point x="587" y="471"/>
      <point x="474" y="585"/>
      <point x="328" y="585" type="curve" smooth="yes"/>
      <point x="166" y="585"/>
      <point x="33" y="448"/>
      <point x="33" y="290" type="curve" smooth="yes"/>
      <point x="33" y="147"/>
      <point x="146" y="34"/>
    </contour>
  </outline>
</glyph>
<glyph name="bullet.medium" format="2">
  <advance width="600"/>
  <outline>
    <contour>
      <point x="323" y="538" type="curve" smooth="yes"/>
      <point x="179" y="538"/>
      <point x="80" y="419"/>
      <point x="80" y="294" type="curve" smooth="yes"/>
      <point x="80" y="177"/>
      <point x="172" y="80"/>
      <point x="297" y="80" type="curve" smooth="yes"/>
      <point x="441" y="80"/>
      <point x="540" y="199"/>
      <point x="540" y="324" type="curve" smooth="yes"/>
      <point x="540" y="441"/>
      <point x="447" y="538"/>
    </contour>
  </outline>
</glyph>
<glyph name="cent.tab" format="2">
  <advance width="600"/>
  <outline>
    <contour>
      <point x="202" y="-112" type="line"/>
      <point x="296" y="-112" type="line"/>
      <point x="421" y="597" type="line"/>
      <point x="327" y="597" type="line"/>
    </contour>
    <contour>
      <point x="564" y="341" type="line"/>
      <point x="556" y="441"/>
      <point x="473" y="512"/>
      <point x="353" y="512" type="curve" smooth="yes"/>
      <point x="172" y="512"/>
      <point x="63" y="356"/>
      <point x="63" y="205" type="curve" smooth="yes"/>
      <point x="63" y="69"/>
      <point x="149" y="-12"/>
      <point x="286" y="-12" type="curve" smooth="yes"/>
      <point x="394" y="-12"/>
      <point x="490" y="42"/>
      <point x="532" y="139" type="curve"/>
      <point x="402" y="178" type="line"/>
      <point x="378" y="121"/>
      <point x="343" y="102"/>
      <point x="299" y="102" type="curve" smooth="yes"/>
      <point x="242" y="102"/>
      <point x="204" y="134"/>
      <point x="204" y="210" type="curve" smooth="yes"/>
      <point x="204" y="306"/>
      <point x="251" y="398"/>
      <point x="343" y="398" type="curve" smooth="yes"/>
      <point x="386" y="398"/>
      <point x="428" y="377"/>
      <point x="428" y="312" type="curve"/>
    </contour>
  </outline>
</glyph>
<glyph name="dotbelowcmb.uc" format="2">
  <advance width="600"/>
  <outline>
    <contour>
      <point x="169" y="-64" type="line"/>
      <point x="145" y="-203" type="line"/>
      <point x="295" y="-203" type="line"/>
      <point x="319" y="-64" type="line"/>
    </contour>
  </outline>
</glyph>
<glyph name="eight.sub" format="2">
  <advance width="350"/>
  <outline>
    <contour>
      <point x="130" y="195" type="curve" smooth="yes"/>
      <point x="130" y="212"/>
      <point x="144" y="229"/>
      <point x="170" y="229" type="curve" smooth="yes"/>
      <point x="191" y="229"/>
      <point x="204" y="217"/>
      <point x="204" y="201" type="curve" smooth="yes"/>
      <point x="204" y="184"/>
      <point x="189" y="166"/>
      <point x="164" y="166" type="curve" smooth="yes"/>
      <point x="143" y="166"/>
      <point x="130" y="179"/>
    </contour>
    <contour>
      <point x="96" y="132" type="curve"/>
      <point x="97" y="140" type="line"/>
      <point x="47" y="133"/>
      <point x="3" y="100"/>
      <point x="3" y="44" type="curve" smooth="yes"/>
      <point x="3" y="-11"/>
      <point x="49" y="-48"/>
      <point x="133" y="-48" type="curve" smooth="yes"/>
      <point x="234" y="-48"/>
      <point x="280" y="11"/>
      <point x="280" y="63" type="curve" smooth="yes"/>
      <point x="280" y="104"/>
      <point x="251" y="128"/>
      <point x="215" y="137" type="curve"/>
      <point x="213" y="129" type="line"/>
      <point x="256" y="134"/>
      <point x="295" y="163"/>
      <point x="295" y="213" type="curve" smooth="yes"/>
      <point x="295" y="260"/>
      <point x="253" y="295"/>
      <point x="175" y="295" type="curve" smooth="yes"/>
      <point x="86" y="295"/>
      <point x="41" y="248"/>
      <point x="41" y="196" type="curve" smooth="yes"/>
      <point x="41" y="159"/>
      <point x="64" y="140"/>
    </contour>
    <contour>
      <point x="139" y="18" type="curve" smooth="yes"/>
      <point x="114" y="18"/>
      <point x="97" y="33"/>
      <point x="97" y="55" type="curve" smooth="yes"/>
      <point x="97" y="77"/>
      <point x="114" y="101"/>
      <point x="146" y="101" type="curve" smooth="yes"/>
      <point x="171" y="101"/>
      <point x="188" y="87"/>
      <point x="188" y="66" type="curve" smooth="yes"/>
      <point x="188" y="44"/>
      <point x="171" y="18"/>
    </contour>
  </outline>
</glyph>
<glyph name="five.num" format="2">
  <advance width="350"/>
  <outline>
    <contour>
      <point x="213" y="681" type="line"/>
      <point x="158" y="622" type="line"/>
      <point x="336" y="622" type="line"/>
      <point x="349" y="700" type="line"/>
      <point x="133" y="700" type="line"/>
      <point x="85" y="514" type="line"/>
      <point x="173" y="505" type="line"/>
      <point x="180" y="515"/>
      <point x="188" y="524"/>
      <point x="203" y="524" type="curve" smooth="yes"/>
      <point x="220" y="524"/>
      <point x="227" y="514"/>
      <point x="227" y="493" type="curve" smooth="yes"/>
      <point x="227" y="467"/>
      <point x="214" y="434"/>
      <point x="191" y="434" type="curve" smooth="yes"/>
      <point x="172" y="434"/>
      <point x="161" y="450"/>
      <point x="164" y="474" type="curve"/>
      <point x="69" y="486" type="line"/>
      <point x="68" y="480"/>
      <point x="68" y="472"/>
      <point x="68" y="465" type="curve" smooth="yes"/>
      <point x="68" y="397"/>
      <point x="117" y="362"/>
      <point x="190" y="362" type="curve" smooth="yes"/>
      <point x="288" y="362"/>
      <point x="323" y="432"/>
      <point x="323" y="503" type="curve" smooth="yes"/>
      <point x="323" y="556"/>
      <point x="295" y="593"/>
      <point x="242" y="593" type="curve" smooth="yes"/>
      <point x="192" y="593"/>
      <point x="161" y="562"/>
      <point x="146" y="533" type="curve"/>
      <point x="171" y="536" type="line"/>
    </contour>
  </outline>
</glyph>
<glyph name="four.den" format="2">
  <advance width="350"/>
  <outline>
    <contour>
      <point x="171" y="314" type="line"/>
      <point x="116" y="0" type="line"/>
      <point x="201" y="0" type="line"/>
      <point x="259" y="333" type="line"/>
      <point x="139" y="333" type="line"/>
      <point x="4" y="136" type="line"/>
      <point x="-10" y="59" type="line"/>
      <point x="259" y="59" type="line"/>
      <point x="272" y="133" type="line"/>
      <point x="44" y="133" type="line"/>
      <point x="64" y="109" type="line"/>
      <point x="206" y="317" type="line"/>
    </contour>
  </outline>
</glyph>
<glyph name="four.num" format="2">
  <advance width="350"/>
  <outline>
    <contour>
      <point x="181" y="367" type="line"/>
      <point x="266" y="367" type="line"/>
      <point x="324" y="700" type="line"/>
      <point x="204" y="700" type="line"/>
      <point x="69" y="503" type="line"/>
      <point x="55" y="426" type="line"/>
      <point x="324" y="426" type="line"/>
      <point x="337" y="500" type="line"/>
      <point x="109" y="500" type="line"/>
      <point x="129" y="476" type="line"/>
      <point x="271" y="684" type="line"/>
      <point x="236" y="681" type="line"/>
    </contour>
  </outline>
</glyph>
<glyph name="greaterequal.tab" format="2">
  <advance width="600"/>
  <outline>
    <contour>
      <point x="10" y="0" type="line"/>
      <point x="31" y="120" type="line"/>
      <point x="519" y="120" type="line"/>
      <point x="498" y="0" type="line"/>
    </contour>
    <contour>
      <point x="561" y="358" type="line"/>
      <point x="583" y="483" type="line"/>
      <point x="130" y="683" type="line"/>
      <point x="109" y="564" type="line"/>
      <point x="499" y="394" type="line"/>
      <point x="511" y="463" type="line"/>
      <point x="61" y="293" type="line"/>
      <point x="38" y="158" type="line"/>
    </contour>
  </outline>
</glyph>
<glyph name="guarani.tab" format="2">
  <advance width="600"/>
  <outline>
    <contour>
      <point x="190" y="-112" type="line"/>
      <point x="284" y="-112" type="line"/>
      <point x="444" y="797" type="line"/>
      <point x="350" y="797" type="line"/>
    </contour>
    <contour>
      <point x="407" y="144" type="line"/>
      <point x="382" y="0" type="line"/>
      <point x="499" y="0" type="line"/>
      <point x="566" y="382" type="line"/>
      <point x="403" y="382" type="line"/>
      <point x="383" y="269" type="line"/>
      <point x="466" y="269" type="line"/>
      <point x="443" y="311" type="line"/>
      <point x="439" y="289" type="line" smooth="yes"/>
      <point x="416" y="167"/>
      <point x="358" y="104"/>
      <point x="294" y="104" type="curve" smooth="yes"/>
      <point x="233" y="104"/>
      <point x="194" y="147"/>
      <point x="194" y="247" type="curve" smooth="yes"/>
      <point x="194" y="408"/>
      <point x="250" y="593"/>
      <point x="369" y="593" type="curve" smooth="yes"/>
      <point x="435" y="593"/>
      <point x="454" y="545"/>
      <point x="454" y="467" type="curve"/>
      <point x="580" y="492" type="line"/>
      <point x="580" y="621"/>
      <point x="524" y="712"/>
      <point x="383" y="712" type="curve" smooth="yes"/>
      <point x="163" y="712"/>
      <point x="54" y="465"/>
      <point x="54" y="245" type="curve" smooth="yes"/>
      <point x="54" y="86"/>
      <point x="127" y="-12"/>
      <point x="253" y="-12" type="curve" smooth="yes"/>
      <point x="341" y="-12"/>
      <point x="398" y="47"/>
      <point x="437" y="138" type="curve"/>
    </contour>
  </outline>
</glyph>
<glyph name="horncmb.uc" format="2">
  <advance width="600"/>
  <outline>
    <contour>
      <point x="389" y="791" type="line"/>
      <point x="388" y="782"/>
      <point x="388" y="779"/>
      <point x="387" y="774" type="curve" smooth="yes"/>
      <point x="378" y="722"/>
      <point x="366" y="700"/>
      <point x="320" y="700" type="curve" smooth="yes"/>
      <point x="243" y="700" type="line"/>
      <point x="226" y="601" type="line"/>
      <point x="305" y="601" type="line" smooth="yes"/>
      <point x="449" y="601"/>
      <point x="483" y="670"/>
      <point x="498" y="773" type="curve" smooth="yes"/>
      <point x="499" y="780"/>
      <point x="500" y="787"/>
      <point x="500" y="791" type="curve"/>
    </contour>
  </outline>
</glyph>
<glyph name="minus.sub" format="2">
  <advance width="350"/>
  <outline>
    <contour>
      <point x="19" y="84" type="line"/>
      <point x="273" y="84" type="line"/>
      <point x="287" y="166" type="line"/>
      <point x="33" y="166" type="line"/>
    </contour>
  </outline>
</glyph>
<glyph name="multiply.tab" format="2">
  <advance width="600"/>
  <outline>
    <contour>
      <point x="45" y="187" type="line"/>
      <point x="116" y="101" type="line"/>
      <point x="577" y="493" type="line"/>
      <point x="506" y="579" type="line"/>
    </contour>
    <contour>
      <point x="427" y="105" type="line"/>
      <point x="518" y="183" type="line"/>
      <point x="195" y="575" type="line"/>
      <point x="104" y="497" type="line"/>
    </contour>
  </outline>
</glyph>
<glyph name="nine.num" format="2">
  <advance width="350"/>
  <outline>
    <contour>
      <point x="228" y="705" type="curve" smooth="yes"/>
      <point x="125" y="705"/>
      <point x="82" y="634"/>
      <point x="82" y="569" type="curve" smooth="yes"/>
      <point x="82" y="511"/>
      <point x="119" y="482"/>
      <point x="174" y="482" type="curve" smooth="yes"/>
      <point x="225" y="482"/>
      <point x="259" y="507"/>
      <point x="274" y="553" type="curve"/>
      <point x="253" y="554" type="line"/>
      <point x="247" y="523" type="line" smooth="yes"/>
      <point x="238" y="475"/>
      <point x="220" y="430"/>
      <point x="188" y="430" type="curve" smooth="yes"/>
      <point x="168" y="430"/>
      <point x="159" y="444"/>
      <point x="163" y="465" type="curve"/>
      <point x="67" y="479" type="line"/>
      <point x="66" y="472"/>
      <point x="66" y="470"/>
      <point x="66" y="464" type="curve" smooth="yes"/>
      <point x="66" y="398"/>
      <point x="112" y="362"/>
      <point x="181" y="362" type="curve" smooth="yes"/>
      <point x="276" y="362"/>
      <point x="323" y="424"/>
      <point x="343" y="536" type="curve" smooth="yes"/>
      <point x="347" y="558"/>
      <point x="349" y="576"/>
      <point x="349" y="592" type="curve" smooth="yes"/>
      <point x="349" y="652"/>
      <point x="317" y="705"/>
    </contour>
    <contour>
      <point x="223" y="636" type="curve" smooth="yes"/>
      <point x="243" y="636"/>
      <point x="256" y="622"/>
      <point x="256" y="598" type="curve" smooth="yes"/>
      <point x="256" y="569"/>
      <point x="237" y="544"/>
      <point x="210" y="544" type="curve" smooth="yes"/>
      <point x="190" y="544"/>
      <point x="178" y="557"/>
      <point x="178" y="581" type="curve" smooth="yes"/>
      <point x="178" y="610"/>
      <point x="196" y="636"/>
    </contour>
  </outline>
</glyph>
<glyph name="one.den" format="2">
  <advance width="350"/>
  <outline>
    <contour>
      <point x="127" y="333" type="line"/>
      <point x="117" y="275"/>
      <point x="97" y="257"/>
      <point x="34" y="257" type="curve"/>
      <point x="21" y="186" type="line"/>
      <point x="146" y="186" type="line"/>
      <point x="104" y="249" type="line"/>
      <point x="60" y="0" type="line"/>
      <point x="153" y="0" type="line"/>
      <point x="213" y="333" type="line"/>
    </contour>
  </outline>
</glyph>
<glyph name="one.num" format="2">
  <advance width="350"/>
  <outline>
    <contour>
      <point x="193" y="700" type="line"/>
      <point x="183" y="642"/>
      <point x="163" y="624"/>
      <point x="100" y="624" type="curve"/>
      <point x="87" y="553" type="line"/>
      <point x="212" y="553" type="line"/>
      <point x="170" y="616" type="line"/>
      <point x="126" y="367" type="line"/>
      <point x="219" y="367" type="line"/>
      <point x="279" y="700" type="line"/>
    </contour>
  </outline>
</glyph>
<glyph name="one.sub" format="2">
  <advance width="350"/>
  <outline>
    <contour>
      <point x="141" y="290" type="line"/>
      <point x="131" y="232"/>
      <point x="111" y="214"/>
      <point x="48" y="214" type="curve"/>
      <point x="35" y="143" type="line"/>
      <point x="160" y="143" type="line"/>
      <point x="118" y="206" type="line"/>
      <point x="74" y="-43" type="line"/>
      <point x="167" y="-43" type="line"/>
      <point x="227" y="290" type="line"/>
    </contour>
  </outline>
</glyph>
<glyph name="one.tab" format="2">
  <advance width="600"/>
  <outline>
    <contour>
      <point x="346" y="700" type="line"/>
      <point x="326" y="589"/>
      <point x="277" y="555"/>
      <point x="118" y="555" type="curve"/>
      <point x="100" y="450" type="line"/>
      <point x="374" y="450" type="line"/>
      <point x="307" y="540" type="line"/>
      <point x="211" y="0" type="line"/>
      <point x="354" y="0" type="line"/>
      <point x="478" y="700" type="line"/>
    </contour>
    <contour>
      <point x="20" y="0" type="line"/>
      <point x="519" y="0" type="line"/>
      <point x="540" y="120" type="line"/>
      <point x="41" y="120" type="line"/>
    </contour>
  </outline>
</glyph>
<glyph name="plus.sub" format="2">
  <advance width="350"/>
  <outline>
    <contour>
      <point x="19" y="84" type="line"/>
      <point x="273" y="84" type="line"/>
      <point x="287" y="166" type="line"/>
      <point x="33" y="166" type="line"/>
    </contour>
    <contour>
      <point x="134" y="259" type="line"/>
      <point x="86" y="-9" type="line"/>
      <point x="172" y="-9" type="line"/>
      <point x="220" y="259" type="line"/>
    </contour>
  </outline>
</glyph>
<glyph name="ringcmb.uc" format="2">
  <advance width="600"/>
  <outline>
    <contour>
      <point x="442" y="867" type="curve" smooth="yes"/>
      <point x="442" y="849"/>
      <point x="429" y="821"/>
      <point x="398" y="821" type="curve" smooth="yes"/>
      <point x="376" y="821"/>
      <point x="364" y="835"/>
      <point x="364" y="853" type="curve" smooth="yes"/>
      <point x="364" y="873"/>
      <point x="377" y="899"/>
      <point x="408" y="899" type="curve" smooth="yes"/>
      <point x="430" y="899"/>
      <point x="442" y="885"/>
    </contour>
    <contour>
      <point x="287" y="846" type="curve" smooth="yes"/>
      <point x="287" y="790"/>
      <point x="327" y="747"/>
      <point x="390" y="747" type="curve" smooth="yes"/>
      <point x="466" y="747"/>
      <point x="519" y="806"/>
      <point x="519" y="874" type="curve" smooth="yes"/>
      <point x="519" y="930"/>
      <point x="479" y="973"/>
      <point x="416" y="973" type="curve" smooth="yes"/>
      <point x="340" y="973"/>
      <point x="287" y="914"/>
    </contour>
  </outline>
</glyph>
<glyph name="seven.den" format="2">
  <advance width="350"/>
  <outline>
    <contour>
      <point x="40" y="333" type="line"/>
      <point x="15" y="196" type="line"/>
      <point x="101" y="196" type="line"/>
      <point x="117" y="286" type="line"/>
      <point x="78" y="257" type="line"/>
      <point x="244" y="257" type="line"/>
      <point x="217" y="294" type="line"/>
      <point x="143" y="200"/>
      <point x="75" y="114"/>
      <point x="56" y="0" type="curve"/>
      <point x="156" y="0" type="line"/>
      <point x="177" y="111"/>
      <point x="230" y="188"/>
      <point x="295" y="277" type="curve"/>
      <point x="305" y="333" type="line"/>
    </contour>
  </outline>
</glyph>
<glyph name="seven.sub" format="2">
  <advance width="350"/>
  <outline>
    <contour>
      <point x="54" y="290" type="line"/>
      <point x="29" y="153" type="line"/>
      <point x="115" y="153" type="line"/>
      <point x="131" y="243" type="line"/>
      <point x="92" y="214" type="line"/>
      <point x="258" y="214" type="line"/>
      <point x="231" y="251" type="line"/>
      <point x="157" y="157"/>
      <point x="89" y="71"/>
      <point x="70" y="-43" type="curve"/>
      <point x="170" y="-43" type="line"/>
      <point x="191" y="68"/>
      <point x="244" y="145"/>
      <point x="309" y="234" type="curve"/>
      <point x="319" y="290" type="line"/>
    </contour>
  </outline>
</glyph>
<glyph name="seven.sup" format="2">
  <advance width="350"/>
  <outline>
    <contour>
      <point x="144" y="800" type="line"/>
      <point x="119" y="663" type="line"/>
      <point x="205" y="663" type="line"/>
      <point x="221" y="753" type="line"/>
      <point x="182" y="724" type="line"/>
      <point x="348" y="724" type="line"/>
      <point x="321" y="761" type="line"/>
      <point x="247" y="667"/>
      <point x="179" y="581"/>
      <point x="160" y="467" type="curve"/>
      <point x="260" y="467" type="line"/>
      <point x="281" y="578"/>
      <point x="334" y="655"/>
      <point x="399" y="744" type="curve"/>
      <point x="409" y="800" type="line"/>
    </contour>
  </outline>
</glyph>
<glyph name="six.den" format="2">
  <advance width="350"/>
  <outline>
    <contour>
      <point x="-3" y="110" type="curve" smooth="yes"/>
      <point x="-3" y="37"/>
      <point x="38" y="-7"/>
      <point x="117" y="-7" type="curve" smooth="yes"/>
      <point x="217" y="-7"/>
      <point x="265" y="65"/>
      <point x="265" y="131" type="curve" smooth="yes"/>
      <point x="265" y="187"/>
      <point x="231" y="219"/>
      <point x="174" y="219" type="curve" smooth="yes"/>
      <point x="124" y="219"/>
      <point x="84" y="191"/>
      <point x="68" y="146" type="curve"/>
      <point x="94" y="145" type="line"/>
      <point x="99" y="174" type="line" smooth="yes"/>
      <point x="110" y="236"/>
      <point x="140" y="261"/>
      <point x="165" y="261" type="curve" smooth="yes"/>
      <point x="180" y="261"/>
      <point x="189" y="252"/>
      <point x="186" y="237" type="curve"/>
      <point x="277" y="227" type="line"/>
      <point x="278" y="232"/>
      <point x="279" y="239"/>
      <point x="279" y="243" type="curve" smooth="yes"/>
      <point x="279" y="301"/>
      <point x="243" y="335"/>
      <point x="175" y="335" type="curve"/>
      <point x="86" y="335"/>
      <point x="21" y="267"/>
      <point x="2" y="160" type="curve" smooth="yes"/>
      <point x="-1" y="142"/>
      <point x="-3" y="125"/>
    </contour>
    <contour>
      <point x="90" y="99" type="curve" smooth="yes"/>
      <point x="90" y="124"/>
      <point x="106" y="155"/>
      <point x="137" y="155" type="curve" smooth="yes"/>
      <point x="157" y="155"/>
      <point x="169" y="142"/>
      <point x="169" y="119" type="curve" smooth="yes"/>
      <point x="169" y="95"/>
      <point x="154" y="62"/>
      <point x="123" y="62" type="curve" smooth="yes"/>
      <point x="102" y="62"/>
      <point x="90" y="76"/>
    </contour>
  </outline>
</glyph>
<glyph name="six.sub" format="2">
  <advance width="350"/>
  <outline>
    <contour>
      <point x="9" y="69" type="curve" smooth="yes"/>
      <point x="9" y="-4"/>
      <point x="50" y="-48"/>
      <point x="129" y="-48" type="curve" smooth="yes"/>
      <point x="229" y="-48"/>
      <point x="277" y="24"/>
      <point x="277" y="90" type="curve" smooth="yes"/>
      <point x="277" y="146"/>
      <point x="243" y="178"/>
      <point x="186" y="178" type="curve" smooth="yes"/>
      <point x="136" y="178"/>
      <point x="96" y="150"/>
      <point x="80" y="105" type="curve"/>
      <point x="106" y="104" type="line"/>
      <point x="111" y="133" type="line" smooth="yes"/>
      <point x="122" y="195"/>
      <point x="152" y="220"/>
      <point x="177" y="220" type="curve" smooth="yes"/>
      <point x="192" y="220"/>
      <point x="201" y="211"/>
      <point x="198" y="196" type="curve"/>
      <point x="289" y="186" type="line"/>
      <point x="290" y="191"/>
      <point x="291" y="198"/>
      <point x="291" y="202" type="curve" smooth="yes"/>
      <point x="291" y="260"/>
      <point x="255" y="294"/>
      <point x="187" y="294" type="curve"/>
      <point x="98" y="294"/>
      <point x="33" y="226"/>
      <point x="14" y="119" type="curve" smooth="yes"/>
      <point x="11" y="101"/>
      <point x="9" y="84"/>
    </contour>
    <contour>
      <point x="102" y="58" type="curve" smooth="yes"/>
      <point x="102" y="83"/>
      <point x="118" y="114"/>
      <point x="149" y="114" type="curve" smooth="yes"/>
      <point x="169" y="114"/>
      <point x="181" y="101"/>
      <point x="181" y="78" type="curve" smooth="yes"/>
      <point x="181" y="54"/>
      <point x="166" y="21"/>
      <point x="135" y="21" type="curve" smooth="yes"/>
      <point x="114" y="21"/>
      <point x="102" y="35"/>
    </contour>
  </outline>
</glyph>
<glyph name="slash.uc" format="2">
  <advance width="600"/>
  <outline>
    <contour>
      <point x="516" y="745" type="line"/>
      <point x="-35" y="-83" type="line"/>
      <point x="124" y="-83" type="line"/>
      <point x="675" y="745" type="line"/>
    </contour>
  </outline>
</glyph>
<glyph name="three.sub" format="2">
  <advance width="350"/>
  <outline>
    <contour>
      <point x="11" y="76" type="line"/>
      <point x="9" y="66"/>
      <point x="7" y="56"/>
      <point x="7" y="47" type="curve" smooth="yes"/>
      <point x="7" y="-16"/>
      <point x="60" y="-48"/>
      <point x="130" y="-48" type="curve" smooth="yes"/>
      <point x="220" y="-48"/>
      <point x="270" y="3"/>
      <point x="270" y="65" type="curve" smooth="yes"/>
      <point x="270" y="100"/>
      <point x="247" y="122"/>
      <point x="214" y="130" type="curve"/>
      <point x="213" y="126" type="line"/>
      <point x="247" y="134"/>
      <point x="287" y="161"/>
      <point x="287" y="212" type="curve" smooth="yes"/>
      <point x="287" y="255"/>
      <point x="253" y="295"/>
      <point x="171" y="295" type="curve" smooth="yes"/>
      <point x="97" y="295"/>
      <point x="42" y="255"/>
      <point x="34" y="177" type="curve"/>
      <point x="126" y="183" type="line"/>
      <point x="127" y="206"/>
      <point x="140" y="223"/>
      <point x="163" y="223" type="curve" smooth="yes"/>
      <point x="175" y="223"/>
      <point x="190" y="216"/>
      <point x="190" y="196" type="curve" smooth="yes"/>
      <point x="190" y="176"/>
      <point x="177" y="162"/>
      <point x="158" y="162" type="curve" smooth="yes"/>
      <point x="138" y="162" type="line"/>
      <point x="127" y="95" type="line"/>
      <point x="138" y="95" type="line" smooth="yes"/>
      <point x="164" y="95"/>
      <point x="175" y="86"/>
      <point x="175" y="66" type="curve" smooth="yes"/>
      <point x="175" y="44"/>
      <point x="163" y="24"/>
      <point x="135" y="24" type="curve" smooth="yes"/>
      <point x="115" y="24"/>
      <point x="101" y="36"/>
      <point x="101" y="55" type="curve" smooth="yes"/>
      <point x="101" y="59"/>
      <point x="102" y="64"/>
      <point x="104" y="70" type="curve"/>
    </contour>
  </outline>
</glyph>
<glyph name="three.sup" format="2">
  <advance width="350"/>
  <outline>
    <contour>
      <point x="101" y="586" type="line"/>
      <point x="99" y="576"/>
      <point x="97" y="566"/>
      <point x="97" y="557" type="curve" smooth="yes"/>
      <point x="97" y="494"/>
      <point x="150" y="462"/>
      <point x="220" y="462" type="curve" smooth="yes"/>
      <point x="310" y="462"/>
      <point x="360" y="513"/>
      <point x="360" y="575" type="curve" smooth="yes"/>
      <point x="360" y="610"/>
      <point x="337" y="632"/>
      <point x="304" y="640" type="curve"/>
      <point x="303" y="636" type="line"/>
      <point x="337" y="644"/>
      <point x="377" y="671"/>
      <point x="377" y="722" type="curve" smooth="yes"/>
      <point x="377" y="765"/>
      <point x="343" y="805"/>
      <point x="261" y="805" type="curve" smooth="yes"/>
      <point x="187" y="805"/>
      <point x="132" y="765"/>
      <point x="124" y="687" type="curve"/>
      <point x="216" y="693" type="line"/>
      <point x="217" y="716"/>
      <point x="230" y="733"/>
      <point x="253" y="733" type="curve" smooth="yes"/>
      <point x="265" y="733"/>
      <point x="280" y="726"/>
      <point x="280" y="706" type="curve" smooth="yes"/>
      <point x="280" y="686"/>
      <point x="267" y="672"/>
      <point x="248" y="672" type="curve" smooth="yes"/>
      <point x="228" y="672" type="line"/>
      <point x="217" y="605" type="line"/>
      <point x="228" y="605" type="line" smooth="yes"/>
      <point x="254" y="605"/>
      <point x="265" y="596"/>
      <point x="265" y="576" type="curve" smooth="yes"/>
      <point x="265" y="554"/>
      <point x="253" y="534"/>
      <point x="225" y="534" type="curve" smooth="yes"/>
      <point x="205" y="534"/>
      <point x="191" y="546"/>
      <point x="191" y="565" type="curve" smooth="yes"/>
      <point x="191" y="569"/>
      <point x="192" y="574"/>
      <point x="194" y="580" type="curve"/>
    </contour>
  </outline>
</glyph>
<glyph name="tildecmb.uc" format="2">
  <advance width="600"/>
  <outline>
    <contour>
      <point x="342" y="891" type="curve" smooth="yes"/>
      <point x="287" y="891"/>
      <point x="244" y="844"/>
      <point x="226" y="760" type="curve"/>
      <point x="318" y="760" type="line"/>
      <point x="324" y="780"/>
      <point x="330" y="795"/>
      <point x="345" y="795" type="curve" smooth="yes"/>
      <point x="367" y="795"/>
      <point x="420" y="765"/>
      <point x="463" y="765" type="curve" smooth="yes"/>
      <point x="517" y="765"/>
      <point x="560" y="812"/>
      <point x="578" y="896" type="curve"/>
      <point x="485" y="896" type="line"/>
      <point x="479" y="876"/>
      <point x="474" y="862"/>
      <point x="459" y="862" type="curve" smooth="yes"/>
      <point x="437" y="862"/>
      <point x="384" y="891"/>
    </contour>
  </outline>
</glyph>
<glyph name="two.sub" format="2">
  <advance width="350"/>
  <outline>
    <contour>
      <point x="14" y="32" type="curve"/>
      <point x="1" y="-43" type="line"/>
      <point x="238" y="-43" type="line"/>
      <point x="251" y="34" type="line"/>
      <point x="69" y="34" type="line"/>
      <point x="60" y="-19" type="line"/>
      <point x="182" y="61"/>
      <point x="280" y="108"/>
      <point x="280" y="198" type="curve" smooth="yes"/>
      <point x="280" y="248"/>
      <point x="249" y="295"/>
      <point x="168" y="295" type="curve" smooth="yes"/>
      <point x="76" y="295"/>
      <point x="34" y="240"/>
      <point x="34" y="186" type="curve" smooth="yes"/>
      <point x="34" y="174"/>
      <point x="36" y="164"/>
      <point x="40" y="153" type="curve"/>
      <point x="129" y="161" type="line"/>
      <point x="126" y="168"/>
      <point x="124" y="176"/>
      <point x="124" y="183" type="curve" smooth="yes"/>
      <point x="124" y="206"/>
      <point x="137" y="221"/>
      <point x="158" y="221" type="curve" smooth="yes"/>
      <point x="173" y="221"/>
      <point x="184" y="214"/>
      <point x="184" y="194" type="curve" smooth="yes"/>
      <point x="184" y="151"/>
      <point x="137" y="123"/>
    </contour>
  </outline>
</glyph>
<glyph name="zero.sup" format="2">
  <advance width="350"/>
  <outline>
    <contour>
      <point x="292" y="670" type="curve" smooth="yes"/>
      <point x="292" y="615"/>
      <point x="272" y="540"/>
      <point x="226" y="540" type="curve" smooth="yes"/>
      <point x="204" y="540"/>
      <point x="192" y="558"/>
      <point x="192" y="597" type="curve" smooth="yes"/>
      <point x="192" y="652"/>
      <point x="212" y="727"/>
      <point x="258" y="727" type="curve" smooth="yes"/>
      <point x="280" y="727"/>
      <point x="292" y="709"/>
    </contour>
    <contour>
      <point x="98" y="593" type="curve" smooth="yes"/>
      <point x="98" y="511"/>
      <point x="144" y="462"/>
      <point x="218" y="462" type="curve" smooth="yes"/>
      <point x="327" y="462"/>
      <point x="387" y="568"/>
      <point x="387" y="673" type="curve" smooth="yes"/>
      <point x="387" y="756"/>
      <point x="340" y="805"/>
      <point x="266" y="805" type="curve" smooth="yes"/>
      <point x="157" y="805"/>
      <point x="98" y="699"/>
    </contour>
  </outline>
</glyph>
